<mxfile type="device" compressed="false">
    <diagram id="Network Topology" name="Network Topology">
          <mxGraphModel dx="1360" dy="864" grid="0" gridSize="10" guides="1" tooltips="1" connect="1" arrows="1" fold="1" page="1" pageScale="1" pageWidth="350" pageHeight="1075.0" math="0" shadow="0" background="#4D5766">
            <root>
              <mxCell id="0" />   
              <mxCell id="1" parent="0" />
            <object id="clab-om-om-spine1" label="om-spine1">
      <mxCell style="shape=image;imageAlign=center;imageVerticalAlign=middle;labelPosition=left;align=right;verticalLabelPosition=top;spacingLeft=0;verticalAlign=bottom;spacingTop=0;spacing=0;fontColor=#F0F0F0;editableCssRules=\.st[0-2]$;labelBackgroundColor=none;aspect=fixed;imageAspect=0;image=data:image/svg+xml,PHN2ZyB4bWxuczp4bGluaz0iaHR0cDovL3d3dy53My5vcmcvMTk5OS94bGluayIgeG1sbnM9Imh0dHA6Ly93d3cudzMub3JnLzIwMDAvc3ZnIiB4bWw6c3BhY2U9InByZXNlcnZlIiBzdHlsZT0iZW5hYmxlLWJhY2tncm91bmQ6bmV3IDAgMCAxMjAgMTIwO2VkaXRhYmxlQ3NzUnVsZXM9Lio7IiB2aWV3Qm94PSIwIDAgMTIwIDEyMCIgeT0iMHB4IiB4PSIwcHgiIGlkPSJMYXllcl8xIiB2ZXJzaW9uPSIxLjEiPiYjeGE7PHN0eWxlIHR5cGU9InRleHQvY3NzIj4mI3hhOwkuc3Qwe2ZpbGw6IzAwMTEzNTt9JiN4YTsJLnN0MXtmaWxsOm5vbmU7c3Ryb2tlOiNGRkZGRkY7c3Ryb2tlLXdpZHRoOjQ7c3Ryb2tlLWxpbmVjYXA6cm91bmQ7c3Ryb2tlLWxpbmVqb2luOnJvdW5kO3N0cm9rZS1taXRlcmxpbWl0OjEwO30mI3hhOwkuc3Qye2ZpbGw6I0ZGRkZGRjt9JiN4YTsJLnN0M3tmaWxsOm5vbmU7c3Ryb2tlOiNGRkZGRkY7c3Ryb2tlLXdpZHRoOjQ7c3Ryb2tlLW1pdGVybGltaXQ6MTA7fSYjeGE7CS5zdDR7ZmlsbDpub25lO3N0cm9rZTojRkZGRkZGO3N0cm9rZS13aWR0aDo0O3N0cm9rZS1saW5lY2FwOnJvdW5kO3N0cm9rZS1saW5lam9pbjpyb3VuZDt9JiN4YTsJLnN0NXtmaWxsOiNGRkZGRkY7c3Ryb2tlOiNGRkZGRkY7c3Ryb2tlLXdpZHRoOjQ7c3Ryb2tlLWxpbmVjYXA6cm91bmQ7c3Ryb2tlLWxpbmVqb2luOnJvdW5kO3N0cm9rZS1taXRlcmxpbWl0OjEwO30mI3hhOwkuc3Q2e2ZpbGw6bm9uZTtzdHJva2U6I0ZGRkZGRjtzdHJva2Utd2lkdGg6NC4yMzMzO3N0cm9rZS1saW5lY2FwOnJvdW5kO3N0cm9rZS1saW5lam9pbjpyb3VuZDtzdHJva2UtbWl0ZXJsaW1pdDoxMDt9JiN4YTsJLnN0N3tmaWxsOm5vbmU7c3Ryb2tlOiNGRkZGRkY7c3Ryb2tlLXdpZHRoOjQ7c3Ryb2tlLWxpbmVjYXA6cm91bmQ7c3Ryb2tlLW1pdGVybGltaXQ6MTA7fSYjeGE7CS5zdDh7ZmlsbDojRkZGRkZGO3N0cm9rZTojRkZGRkZGO3N0cm9rZS13aWR0aDo0O3N0cm9rZS1taXRlcmxpbWl0OjEwO30mI3hhOwkuc3Q5e2ZpbGw6I0ZGRkZGRjtzdHJva2U6I0ZGRkZGRjtzdHJva2Utd2lkdGg6NDt9JiN4YTsJLnN0MTB7ZmlsbDpub25lO3N0cm9rZTojRkZGRkZGO3N0cm9rZS13aWR0aDo0O30mI3hhOwkuc3QxMXtmaWxsOiMyNjI2MjY7c3Ryb2tlOiNGRkZGRkY7c3Ryb2tlLXdpZHRoOjQuMjMzMzt9JiN4YTsJLnN0MTJ7ZmlsbC1ydWxlOmV2ZW5vZGQ7Y2xpcC1ydWxlOmV2ZW5vZGQ7ZmlsbDpub25lO3N0cm9rZTojRkZGRkZGO3N0cm9rZS13aWR0aDo0O3N0cm9rZS1taXRlcmxpbWl0OjEwO30mI3hhOwkuc3QxM3tmaWxsLXJ1bGU6ZXZlbm9kZDtjbGlwLXJ1bGU6ZXZlbm9kZDtmaWxsOiNGRkZGRkY7c3Ryb2tlOiNGRkZGRkY7c3Ryb2tlLXdpZHRoOjQ7fSYjeGE7CS5zdDE0e2ZpbGw6bm9uZTtzdHJva2U6I0ZGRkZGRjtzdHJva2Utd2lkdGg6NC4yMzMzO3N0cm9rZS1saW5lY2FwOnJvdW5kO3N0cm9rZS1saW5lam9pbjpyb3VuZDt9JiN4YTsJLnN0MTV7ZmlsbDpub25lO3N0cm9rZTojRkZGRkZGO3N0cm9rZS13aWR0aDo0O3N0cm9rZS1saW5lY2FwOnJvdW5kO30mI3hhOwkuc3QxNntmaWxsOiNGRkZGRkY7c3Ryb2tlOiNGRkZGRkY7c3Ryb2tlLW1pdGVybGltaXQ6MTA7fSYjeGE7CS5zdDE3e2ZpbGw6IzI2MjYyNjtzdHJva2U6I0ZGRkZGRjtzdHJva2Utd2lkdGg6NDtzdHJva2UtbWl0ZXJsaW1pdDoxMDt9JiN4YTsJLnN0MTh7ZmlsbDojRkZGRkZGO3N0cm9rZTojRkZGRkZGO3N0cm9rZS13aWR0aDo0O3N0cm9rZS1saW5lY2FwOnJvdW5kO3N0cm9rZS1saW5lam9pbjpyb3VuZDt9JiN4YTs8L3N0eWxlPiYjeGE7PHJlY3QgaGVpZ2h0PSIxMjAiIHdpZHRoPSIxMjAiIGNsYXNzPSJzdDAiLz4mI3hhOzxnPiYjeGE7CTxnPiYjeGE7CQk8cGF0aCBkPSJNNzEuNywxOS43VjQ4aDI4IiBjbGFzcz0ic3QxIi8+JiN4YTsJCTxwYXRoIGQ9Ik05MS4yLDM4LjVsNy41LDcuNmMxLjMsMS4zLDEuMywzLjEsMCw0LjNMOTEuMSw1OCIgY2xhc3M9InN0MSIvPiYjeGE7CTwvZz4mI3hhOwk8Zz4mI3hhOwkJPHBhdGggZD0iTTIwLDQ3LjhoMjguNHYtMjgiIGNsYXNzPSJzdDEiLz4mI3hhOwkJPHBhdGggZD0iTTM4LjgsMjguM2w3LjYtNy41YzEuMy0xLjMsMy4xLTEuMyw0LjMsMGw3LjcsNy42IiBjbGFzcz0ic3QxIi8+JiN4YTsJPC9nPiYjeGE7CTxnPiYjeGE7CQk8cGF0aCBkPSJNNDgsMTAwLjNWNzJIMjAiIGNsYXNzPSJzdDEiLz4mI3hhOwkJPHBhdGggZD0iTTI4LjUsODEuNUwyMSw3My45Yy0xLjMtMS4zLTEuMy0zLjEsMC00LjNsNy42LTcuNyIgY2xhc3M9InN0MSIvPiYjeGE7CTwvZz4mI3hhOwk8Zz4mI3hhOwkJPHBhdGggZD0iTTEwMCw3MS45SDcxLjZ2MjgiIGNsYXNzPSJzdDEiLz4mI3hhOwkJPHBhdGggZD0iTTgxLjIsOTEuNGwtNy42LDcuNWMtMS4zLDEuMy0zLjEsMS4zLTQuMywwbC03LjctNy42IiBjbGFzcz0ic3QxIi8+JiN4YTsJPC9nPiYjeGE7PC9nPiYjeGE7PC9zdmc+" vertex="1" parent="1">
          <mxGeometry x="250" y="800.0" width="75" height="75" as="geometry" />
      </mxCell>
    </object><object id="clab-om-om-spine2" label="om-spine2">
      <mxCell style="shape=image;imageAlign=center;imageVerticalAlign=middle;labelPosition=left;align=right;verticalLabelPosition=top;spacingLeft=0;verticalAlign=bottom;spacingTop=0;spacing=0;fontColor=#F0F0F0;editableCssRules=\.st[0-2]$;labelBackgroundColor=none;aspect=fixed;imageAspect=0;image=data:image/svg+xml,PHN2ZyB4bWxuczp4bGluaz0iaHR0cDovL3d3dy53My5vcmcvMTk5OS94bGluayIgeG1sbnM9Imh0dHA6Ly93d3cudzMub3JnLzIwMDAvc3ZnIiB4bWw6c3BhY2U9InByZXNlcnZlIiBzdHlsZT0iZW5hYmxlLWJhY2tncm91bmQ6bmV3IDAgMCAxMjAgMTIwO2VkaXRhYmxlQ3NzUnVsZXM9Lio7IiB2aWV3Qm94PSIwIDAgMTIwIDEyMCIgeT0iMHB4IiB4PSIwcHgiIGlkPSJMYXllcl8xIiB2ZXJzaW9uPSIxLjEiPiYjeGE7PHN0eWxlIHR5cGU9InRleHQvY3NzIj4mI3hhOwkuc3Qwe2ZpbGw6IzAwMTEzNTt9JiN4YTsJLnN0MXtmaWxsOm5vbmU7c3Ryb2tlOiNGRkZGRkY7c3Ryb2tlLXdpZHRoOjQ7c3Ryb2tlLWxpbmVjYXA6cm91bmQ7c3Ryb2tlLWxpbmVqb2luOnJvdW5kO3N0cm9rZS1taXRlcmxpbWl0OjEwO30mI3hhOwkuc3Qye2ZpbGw6I0ZGRkZGRjt9JiN4YTsJLnN0M3tmaWxsOm5vbmU7c3Ryb2tlOiNGRkZGRkY7c3Ryb2tlLXdpZHRoOjQ7c3Ryb2tlLW1pdGVybGltaXQ6MTA7fSYjeGE7CS5zdDR7ZmlsbDpub25lO3N0cm9rZTojRkZGRkZGO3N0cm9rZS13aWR0aDo0O3N0cm9rZS1saW5lY2FwOnJvdW5kO3N0cm9rZS1saW5lam9pbjpyb3VuZDt9JiN4YTsJLnN0NXtmaWxsOiNGRkZGRkY7c3Ryb2tlOiNGRkZGRkY7c3Ryb2tlLXdpZHRoOjQ7c3Ryb2tlLWxpbmVjYXA6cm91bmQ7c3Ryb2tlLWxpbmVqb2luOnJvdW5kO3N0cm9rZS1taXRlcmxpbWl0OjEwO30mI3hhOwkuc3Q2e2ZpbGw6bm9uZTtzdHJva2U6I0ZGRkZGRjtzdHJva2Utd2lkdGg6NC4yMzMzO3N0cm9rZS1saW5lY2FwOnJvdW5kO3N0cm9rZS1saW5lam9pbjpyb3VuZDtzdHJva2UtbWl0ZXJsaW1pdDoxMDt9JiN4YTsJLnN0N3tmaWxsOm5vbmU7c3Ryb2tlOiNGRkZGRkY7c3Ryb2tlLXdpZHRoOjQ7c3Ryb2tlLWxpbmVjYXA6cm91bmQ7c3Ryb2tlLW1pdGVybGltaXQ6MTA7fSYjeGE7CS5zdDh7ZmlsbDojRkZGRkZGO3N0cm9rZTojRkZGRkZGO3N0cm9rZS13aWR0aDo0O3N0cm9rZS1taXRlcmxpbWl0OjEwO30mI3hhOwkuc3Q5e2ZpbGw6I0ZGRkZGRjtzdHJva2U6I0ZGRkZGRjtzdHJva2Utd2lkdGg6NDt9JiN4YTsJLnN0MTB7ZmlsbDpub25lO3N0cm9rZTojRkZGRkZGO3N0cm9rZS13aWR0aDo0O30mI3hhOwkuc3QxMXtmaWxsOiMyNjI2MjY7c3Ryb2tlOiNGRkZGRkY7c3Ryb2tlLXdpZHRoOjQuMjMzMzt9JiN4YTsJLnN0MTJ7ZmlsbC1ydWxlOmV2ZW5vZGQ7Y2xpcC1ydWxlOmV2ZW5vZGQ7ZmlsbDpub25lO3N0cm9rZTojRkZGRkZGO3N0cm9rZS13aWR0aDo0O3N0cm9rZS1taXRlcmxpbWl0OjEwO30mI3hhOwkuc3QxM3tmaWxsLXJ1bGU6ZXZlbm9kZDtjbGlwLXJ1bGU6ZXZlbm9kZDtmaWxsOiNGRkZGRkY7c3Ryb2tlOiNGRkZGRkY7c3Ryb2tlLXdpZHRoOjQ7fSYjeGE7CS5zdDE0e2ZpbGw6bm9uZTtzdHJva2U6I0ZGRkZGRjtzdHJva2Utd2lkdGg6NC4yMzMzO3N0cm9rZS1saW5lY2FwOnJvdW5kO3N0cm9rZS1saW5lam9pbjpyb3VuZDt9JiN4YTsJLnN0MTV7ZmlsbDpub25lO3N0cm9rZTojRkZGRkZGO3N0cm9rZS13aWR0aDo0O3N0cm9rZS1saW5lY2FwOnJvdW5kO30mI3hhOwkuc3QxNntmaWxsOiNGRkZGRkY7c3Ryb2tlOiNGRkZGRkY7c3Ryb2tlLW1pdGVybGltaXQ6MTA7fSYjeGE7CS5zdDE3e2ZpbGw6IzI2MjYyNjtzdHJva2U6I0ZGRkZGRjtzdHJva2Utd2lkdGg6NDtzdHJva2UtbWl0ZXJsaW1pdDoxMDt9JiN4YTsJLnN0MTh7ZmlsbDojRkZGRkZGO3N0cm9rZTojRkZGRkZGO3N0cm9rZS13aWR0aDo0O3N0cm9rZS1saW5lY2FwOnJvdW5kO3N0cm9rZS1saW5lam9pbjpyb3VuZDt9JiN4YTs8L3N0eWxlPiYjeGE7PHJlY3QgaGVpZ2h0PSIxMjAiIHdpZHRoPSIxMjAiIGNsYXNzPSJzdDAiLz4mI3hhOzxnPiYjeGE7CTxnPiYjeGE7CQk8cGF0aCBkPSJNNzEuNywxOS43VjQ4aDI4IiBjbGFzcz0ic3QxIi8+JiN4YTsJCTxwYXRoIGQ9Ik05MS4yLDM4LjVsNy41LDcuNmMxLjMsMS4zLDEuMywzLjEsMCw0LjNMOTEuMSw1OCIgY2xhc3M9InN0MSIvPiYjeGE7CTwvZz4mI3hhOwk8Zz4mI3hhOwkJPHBhdGggZD0iTTIwLDQ3LjhoMjguNHYtMjgiIGNsYXNzPSJzdDEiLz4mI3hhOwkJPHBhdGggZD0iTTM4LjgsMjguM2w3LjYtNy41YzEuMy0xLjMsMy4xLTEuMyw0LjMsMGw3LjcsNy42IiBjbGFzcz0ic3QxIi8+JiN4YTsJPC9nPiYjeGE7CTxnPiYjeGE7CQk8cGF0aCBkPSJNNDgsMTAwLjNWNzJIMjAiIGNsYXNzPSJzdDEiLz4mI3hhOwkJPHBhdGggZD0iTTI4LjUsODEuNUwyMSw3My45Yy0xLjMtMS4zLTEuMy0zLjEsMC00LjNsNy42LTcuNyIgY2xhc3M9InN0MSIvPiYjeGE7CTwvZz4mI3hhOwk8Zz4mI3hhOwkJPHBhdGggZD0iTTEwMCw3MS45SDcxLjZ2MjgiIGNsYXNzPSJzdDEiLz4mI3hhOwkJPHBhdGggZD0iTTgxLjIsOTEuNGwtNy42LDcuNWMtMS4zLDEuMy0zLjEsMS4zLTQuMywwbC03LjctNy42IiBjbGFzcz0ic3QxIi8+JiN4YTsJPC9nPiYjeGE7PC9nPiYjeGE7PC9zdmc+" vertex="1" parent="1">
          <mxGeometry x="250" y="975.0" width="75" height="75" as="geometry" />
      </mxCell>
    </object><object id="clab-om-om-pe11" label="om-pe11">
      <mxCell style="shape=image;imageAlign=center;imageVerticalAlign=middle;labelPosition=left;align=right;verticalLabelPosition=top;spacingLeft=0;verticalAlign=bottom;spacingTop=0;spacing=0;fontColor=#F0F0F0;editableCssRules=\.st[0-2]$;labelBackgroundColor=none;aspect=fixed;imageAspect=0;image=data:image/svg+xml,PHN2ZyB4bWxuczp4bGluaz0iaHR0cDovL3d3dy53My5vcmcvMTk5OS94bGluayIgeG1sbnM9Imh0dHA6Ly93d3cudzMub3JnLzIwMDAvc3ZnIiB4bWw6c3BhY2U9InByZXNlcnZlIiBzdHlsZT0iZW5hYmxlLWJhY2tncm91bmQ6bmV3IDAgMCAxMjAgMTIwO2VkaXRhYmxlQ3NzUnVsZXM9Lio7IiB2aWV3Qm94PSIwIDAgMTIwIDEyMCIgeT0iMHB4IiB4PSIwcHgiIGlkPSJMYXllcl8xIiB2ZXJzaW9uPSIxLjEiPiYjeGE7PHN0eWxlIHR5cGU9InRleHQvY3NzIj4mI3hhOwkuc3Qwe2ZpbGw6IzAwMTEzNTt9JiN4YTsJLnN0MXtmaWxsOm5vbmU7c3Ryb2tlOiNGRkZGRkY7c3Ryb2tlLXdpZHRoOjQ7c3Ryb2tlLWxpbmVjYXA6cm91bmQ7c3Ryb2tlLWxpbmVqb2luOnJvdW5kO3N0cm9rZS1taXRlcmxpbWl0OjEwO30mI3hhOwkuc3Qye2ZpbGw6I0ZGRkZGRjt9JiN4YTsJLnN0M3tmaWxsOm5vbmU7c3Ryb2tlOiNGRkZGRkY7c3Ryb2tlLXdpZHRoOjQ7c3Ryb2tlLW1pdGVybGltaXQ6MTA7fSYjeGE7CS5zdDR7ZmlsbDpub25lO3N0cm9rZTojRkZGRkZGO3N0cm9rZS13aWR0aDo0O3N0cm9rZS1saW5lY2FwOnJvdW5kO3N0cm9rZS1saW5lam9pbjpyb3VuZDt9JiN4YTsJLnN0NXtmaWxsOiNGRkZGRkY7c3Ryb2tlOiNGRkZGRkY7c3Ryb2tlLXdpZHRoOjQ7c3Ryb2tlLWxpbmVjYXA6cm91bmQ7c3Ryb2tlLWxpbmVqb2luOnJvdW5kO3N0cm9rZS1taXRlcmxpbWl0OjEwO30mI3hhOwkuc3Q2e2ZpbGw6bm9uZTtzdHJva2U6I0ZGRkZGRjtzdHJva2Utd2lkdGg6NC4yMzMzO3N0cm9rZS1saW5lY2FwOnJvdW5kO3N0cm9rZS1saW5lam9pbjpyb3VuZDtzdHJva2UtbWl0ZXJsaW1pdDoxMDt9JiN4YTsJLnN0N3tmaWxsOm5vbmU7c3Ryb2tlOiNGRkZGRkY7c3Ryb2tlLXdpZHRoOjQ7c3Ryb2tlLWxpbmVjYXA6cm91bmQ7c3Ryb2tlLW1pdGVybGltaXQ6MTA7fSYjeGE7CS5zdDh7ZmlsbDojRkZGRkZGO3N0cm9rZTojRkZGRkZGO3N0cm9rZS13aWR0aDo0O3N0cm9rZS1taXRlcmxpbWl0OjEwO30mI3hhOwkuc3Q5e2ZpbGw6I0ZGRkZGRjtzdHJva2U6I0ZGRkZGRjtzdHJva2Utd2lkdGg6NDt9JiN4YTsJLnN0MTB7ZmlsbDpub25lO3N0cm9rZTojRkZGRkZGO3N0cm9rZS13aWR0aDo0O30mI3hhOwkuc3QxMXtmaWxsOiMyNjI2MjY7c3Ryb2tlOiNGRkZGRkY7c3Ryb2tlLXdpZHRoOjQuMjMzMzt9JiN4YTsJLnN0MTJ7ZmlsbC1ydWxlOmV2ZW5vZGQ7Y2xpcC1ydWxlOmV2ZW5vZGQ7ZmlsbDpub25lO3N0cm9rZTojRkZGRkZGO3N0cm9rZS13aWR0aDo0O3N0cm9rZS1taXRlcmxpbWl0OjEwO30mI3hhOwkuc3QxM3tmaWxsLXJ1bGU6ZXZlbm9kZDtjbGlwLXJ1bGU6ZXZlbm9kZDtmaWxsOiNGRkZGRkY7c3Ryb2tlOiNGRkZGRkY7c3Ryb2tlLXdpZHRoOjQ7fSYjeGE7CS5zdDE0e2ZpbGw6bm9uZTtzdHJva2U6I0ZGRkZGRjtzdHJva2Utd2lkdGg6NC4yMzMzO3N0cm9rZS1saW5lY2FwOnJvdW5kO3N0cm9rZS1saW5lam9pbjpyb3VuZDt9JiN4YTsJLnN0MTV7ZmlsbDpub25lO3N0cm9rZTojRkZGRkZGO3N0cm9rZS13aWR0aDo0O3N0cm9rZS1saW5lY2FwOnJvdW5kO30mI3hhOwkuc3QxNntmaWxsOiNGRkZGRkY7c3Ryb2tlOiNGRkZGRkY7c3Ryb2tlLW1pdGVybGltaXQ6MTA7fSYjeGE7CS5zdDE3e2ZpbGw6IzI2MjYyNjtzdHJva2U6I0ZGRkZGRjtzdHJva2Utd2lkdGg6NDtzdHJva2UtbWl0ZXJsaW1pdDoxMDt9JiN4YTsJLnN0MTh7ZmlsbDojRkZGRkZGO3N0cm9rZTojRkZGRkZGO3N0cm9rZS13aWR0aDo0O3N0cm9rZS1saW5lY2FwOnJvdW5kO3N0cm9rZS1saW5lam9pbjpyb3VuZDt9JiN4YTs8L3N0eWxlPiYjeGE7PHJlY3QgaGVpZ2h0PSIxMjAiIHdpZHRoPSIxMjAiIGNsYXNzPSJzdDAiLz4mI3hhOzxnPiYjeGE7CTxnPiYjeGE7CQk8cGF0aCBkPSJNNzEuNywxOS43VjQ4aDI4IiBjbGFzcz0ic3QxIi8+JiN4YTsJCTxwYXRoIGQ9Ik05MS4yLDM4LjVsNy41LDcuNmMxLjMsMS4zLDEuMywzLjEsMCw0LjNMOTEuMSw1OCIgY2xhc3M9InN0MSIvPiYjeGE7CTwvZz4mI3hhOwk8Zz4mI3hhOwkJPHBhdGggZD0iTTIwLDQ3LjhoMjguNHYtMjgiIGNsYXNzPSJzdDEiLz4mI3hhOwkJPHBhdGggZD0iTTM4LjgsMjguM2w3LjYtNy41YzEuMy0xLjMsMy4xLTEuMyw0LjMsMGw3LjcsNy42IiBjbGFzcz0ic3QxIi8+JiN4YTsJPC9nPiYjeGE7CTxnPiYjeGE7CQk8cGF0aCBkPSJNNDgsMTAwLjNWNzJIMjAiIGNsYXNzPSJzdDEiLz4mI3hhOwkJPHBhdGggZD0iTTI4LjUsODEuNUwyMSw3My45Yy0xLjMtMS4zLTEuMy0zLjEsMC00LjNsNy42LTcuNyIgY2xhc3M9InN0MSIvPiYjeGE7CTwvZz4mI3hhOwk8Zz4mI3hhOwkJPHBhdGggZD0iTTEwMCw3MS45SDcxLjZ2MjgiIGNsYXNzPSJzdDEiLz4mI3hhOwkJPHBhdGggZD0iTTgxLjIsOTEuNGwtNy42LDcuNWMtMS4zLDEuMy0zLjEsMS4zLTQuMywwbC03LjctNy42IiBjbGFzcz0ic3QxIi8+JiN4YTsJPC9nPiYjeGE7PC9nPiYjeGE7PC9zdmc+" vertex="1" parent="1">
          <mxGeometry x="100" y="275.0" width="75" height="75" as="geometry" />
      </mxCell>
    </object><object id="clab-om-om-pe12" label="om-pe12">
      <mxCell style="shape=image;imageAlign=center;imageVerticalAlign=middle;labelPosition=left;align=right;verticalLabelPosition=top;spacingLeft=0;verticalAlign=bottom;spacingTop=0;spacing=0;fontColor=#F0F0F0;editableCssRules=\.st[0-2]$;labelBackgroundColor=none;aspect=fixed;imageAspect=0;image=data:image/svg+xml,PHN2ZyB4bWxuczp4bGluaz0iaHR0cDovL3d3dy53My5vcmcvMTk5OS94bGluayIgeG1sbnM9Imh0dHA6Ly93d3cudzMub3JnLzIwMDAvc3ZnIiB4bWw6c3BhY2U9InByZXNlcnZlIiBzdHlsZT0iZW5hYmxlLWJhY2tncm91bmQ6bmV3IDAgMCAxMjAgMTIwO2VkaXRhYmxlQ3NzUnVsZXM9Lio7IiB2aWV3Qm94PSIwIDAgMTIwIDEyMCIgeT0iMHB4IiB4PSIwcHgiIGlkPSJMYXllcl8xIiB2ZXJzaW9uPSIxLjEiPiYjeGE7PHN0eWxlIHR5cGU9InRleHQvY3NzIj4mI3hhOwkuc3Qwe2ZpbGw6IzAwMTEzNTt9JiN4YTsJLnN0MXtmaWxsOm5vbmU7c3Ryb2tlOiNGRkZGRkY7c3Ryb2tlLXdpZHRoOjQ7c3Ryb2tlLWxpbmVjYXA6cm91bmQ7c3Ryb2tlLWxpbmVqb2luOnJvdW5kO3N0cm9rZS1taXRlcmxpbWl0OjEwO30mI3hhOwkuc3Qye2ZpbGw6I0ZGRkZGRjt9JiN4YTsJLnN0M3tmaWxsOm5vbmU7c3Ryb2tlOiNGRkZGRkY7c3Ryb2tlLXdpZHRoOjQ7c3Ryb2tlLW1pdGVybGltaXQ6MTA7fSYjeGE7CS5zdDR7ZmlsbDpub25lO3N0cm9rZTojRkZGRkZGO3N0cm9rZS13aWR0aDo0O3N0cm9rZS1saW5lY2FwOnJvdW5kO3N0cm9rZS1saW5lam9pbjpyb3VuZDt9JiN4YTsJLnN0NXtmaWxsOiNGRkZGRkY7c3Ryb2tlOiNGRkZGRkY7c3Ryb2tlLXdpZHRoOjQ7c3Ryb2tlLWxpbmVjYXA6cm91bmQ7c3Ryb2tlLWxpbmVqb2luOnJvdW5kO3N0cm9rZS1taXRlcmxpbWl0OjEwO30mI3hhOwkuc3Q2e2ZpbGw6bm9uZTtzdHJva2U6I0ZGRkZGRjtzdHJva2Utd2lkdGg6NC4yMzMzO3N0cm9rZS1saW5lY2FwOnJvdW5kO3N0cm9rZS1saW5lam9pbjpyb3VuZDtzdHJva2UtbWl0ZXJsaW1pdDoxMDt9JiN4YTsJLnN0N3tmaWxsOm5vbmU7c3Ryb2tlOiNGRkZGRkY7c3Ryb2tlLXdpZHRoOjQ7c3Ryb2tlLWxpbmVjYXA6cm91bmQ7c3Ryb2tlLW1pdGVybGltaXQ6MTA7fSYjeGE7CS5zdDh7ZmlsbDojRkZGRkZGO3N0cm9rZTojRkZGRkZGO3N0cm9rZS13aWR0aDo0O3N0cm9rZS1taXRlcmxpbWl0OjEwO30mI3hhOwkuc3Q5e2ZpbGw6I0ZGRkZGRjtzdHJva2U6I0ZGRkZGRjtzdHJva2Utd2lkdGg6NDt9JiN4YTsJLnN0MTB7ZmlsbDpub25lO3N0cm9rZTojRkZGRkZGO3N0cm9rZS13aWR0aDo0O30mI3hhOwkuc3QxMXtmaWxsOiMyNjI2MjY7c3Ryb2tlOiNGRkZGRkY7c3Ryb2tlLXdpZHRoOjQuMjMzMzt9JiN4YTsJLnN0MTJ7ZmlsbC1ydWxlOmV2ZW5vZGQ7Y2xpcC1ydWxlOmV2ZW5vZGQ7ZmlsbDpub25lO3N0cm9rZTojRkZGRkZGO3N0cm9rZS13aWR0aDo0O3N0cm9rZS1taXRlcmxpbWl0OjEwO30mI3hhOwkuc3QxM3tmaWxsLXJ1bGU6ZXZlbm9kZDtjbGlwLXJ1bGU6ZXZlbm9kZDtmaWxsOiNGRkZGRkY7c3Ryb2tlOiNGRkZGRkY7c3Ryb2tlLXdpZHRoOjQ7fSYjeGE7CS5zdDE0e2ZpbGw6bm9uZTtzdHJva2U6I0ZGRkZGRjtzdHJva2Utd2lkdGg6NC4yMzMzO3N0cm9rZS1saW5lY2FwOnJvdW5kO3N0cm9rZS1saW5lam9pbjpyb3VuZDt9JiN4YTsJLnN0MTV7ZmlsbDpub25lO3N0cm9rZTojRkZGRkZGO3N0cm9rZS13aWR0aDo0O3N0cm9rZS1saW5lY2FwOnJvdW5kO30mI3hhOwkuc3QxNntmaWxsOiNGRkZGRkY7c3Ryb2tlOiNGRkZGRkY7c3Ryb2tlLW1pdGVybGltaXQ6MTA7fSYjeGE7CS5zdDE3e2ZpbGw6IzI2MjYyNjtzdHJva2U6I0ZGRkZGRjtzdHJva2Utd2lkdGg6NDtzdHJva2UtbWl0ZXJsaW1pdDoxMDt9JiN4YTsJLnN0MTh7ZmlsbDojRkZGRkZGO3N0cm9rZTojRkZGRkZGO3N0cm9rZS13aWR0aDo0O3N0cm9rZS1saW5lY2FwOnJvdW5kO3N0cm9rZS1saW5lam9pbjpyb3VuZDt9JiN4YTs8L3N0eWxlPiYjeGE7PHJlY3QgaGVpZ2h0PSIxMjAiIHdpZHRoPSIxMjAiIGNsYXNzPSJzdDAiLz4mI3hhOzxnPiYjeGE7CTxnPiYjeGE7CQk8cGF0aCBkPSJNNzEuNywxOS43VjQ4aDI4IiBjbGFzcz0ic3QxIi8+JiN4YTsJCTxwYXRoIGQ9Ik05MS4yLDM4LjVsNy41LDcuNmMxLjMsMS4zLDEuMywzLjEsMCw0LjNMOTEuMSw1OCIgY2xhc3M9InN0MSIvPiYjeGE7CTwvZz4mI3hhOwk8Zz4mI3hhOwkJPHBhdGggZD0iTTIwLDQ3LjhoMjguNHYtMjgiIGNsYXNzPSJzdDEiLz4mI3hhOwkJPHBhdGggZD0iTTM4LjgsMjguM2w3LjYtNy41YzEuMy0xLjMsMy4xLTEuMyw0LjMsMGw3LjcsNy42IiBjbGFzcz0ic3QxIi8+JiN4YTsJPC9nPiYjeGE7CTxnPiYjeGE7CQk8cGF0aCBkPSJNNDgsMTAwLjNWNzJIMjAiIGNsYXNzPSJzdDEiLz4mI3hhOwkJPHBhdGggZD0iTTI4LjUsODEuNUwyMSw3My45Yy0xLjMtMS4zLTEuMy0zLjEsMC00LjNsNy42LTcuNyIgY2xhc3M9InN0MSIvPiYjeGE7CTwvZz4mI3hhOwk8Zz4mI3hhOwkJPHBhdGggZD0iTTEwMCw3MS45SDcxLjZ2MjgiIGNsYXNzPSJzdDEiLz4mI3hhOwkJPHBhdGggZD0iTTgxLjIsOTEuNGwtNy42LDcuNWMtMS4zLDEuMy0zLjEsMS4zLTQuMywwbC03LjctNy42IiBjbGFzcz0ic3QxIi8+JiN4YTsJPC9nPiYjeGE7PC9nPiYjeGE7PC9zdmc+" vertex="1" parent="1">
          <mxGeometry x="100" y="450.0" width="75" height="75" as="geometry" />
      </mxCell>
    </object><object id="clab-om-om-pe21" label="om-pe21">
      <mxCell style="shape=image;imageAlign=center;imageVerticalAlign=middle;labelPosition=left;align=right;verticalLabelPosition=top;spacingLeft=0;verticalAlign=bottom;spacingTop=0;spacing=0;fontColor=#F0F0F0;editableCssRules=\.st[0-2]$;labelBackgroundColor=none;aspect=fixed;imageAspect=0;image=data:image/svg+xml,PHN2ZyB4bWxuczp4bGluaz0iaHR0cDovL3d3dy53My5vcmcvMTk5OS94bGluayIgeG1sbnM9Imh0dHA6Ly93d3cudzMub3JnLzIwMDAvc3ZnIiB4bWw6c3BhY2U9InByZXNlcnZlIiBzdHlsZT0iZW5hYmxlLWJhY2tncm91bmQ6bmV3IDAgMCAxMjAgMTIwO2VkaXRhYmxlQ3NzUnVsZXM9Lio7IiB2aWV3Qm94PSIwIDAgMTIwIDEyMCIgeT0iMHB4IiB4PSIwcHgiIGlkPSJMYXllcl8xIiB2ZXJzaW9uPSIxLjEiPiYjeGE7PHN0eWxlIHR5cGU9InRleHQvY3NzIj4mI3hhOwkuc3Qwe2ZpbGw6IzAwMTEzNTt9JiN4YTsJLnN0MXtmaWxsOm5vbmU7c3Ryb2tlOiNGRkZGRkY7c3Ryb2tlLXdpZHRoOjQ7c3Ryb2tlLWxpbmVjYXA6cm91bmQ7c3Ryb2tlLWxpbmVqb2luOnJvdW5kO3N0cm9rZS1taXRlcmxpbWl0OjEwO30mI3hhOwkuc3Qye2ZpbGw6I0ZGRkZGRjt9JiN4YTsJLnN0M3tmaWxsOm5vbmU7c3Ryb2tlOiNGRkZGRkY7c3Ryb2tlLXdpZHRoOjQ7c3Ryb2tlLW1pdGVybGltaXQ6MTA7fSYjeGE7CS5zdDR7ZmlsbDpub25lO3N0cm9rZTojRkZGRkZGO3N0cm9rZS13aWR0aDo0O3N0cm9rZS1saW5lY2FwOnJvdW5kO3N0cm9rZS1saW5lam9pbjpyb3VuZDt9JiN4YTsJLnN0NXtmaWxsOiNGRkZGRkY7c3Ryb2tlOiNGRkZGRkY7c3Ryb2tlLXdpZHRoOjQ7c3Ryb2tlLWxpbmVjYXA6cm91bmQ7c3Ryb2tlLWxpbmVqb2luOnJvdW5kO3N0cm9rZS1taXRlcmxpbWl0OjEwO30mI3hhOwkuc3Q2e2ZpbGw6bm9uZTtzdHJva2U6I0ZGRkZGRjtzdHJva2Utd2lkdGg6NC4yMzMzO3N0cm9rZS1saW5lY2FwOnJvdW5kO3N0cm9rZS1saW5lam9pbjpyb3VuZDtzdHJva2UtbWl0ZXJsaW1pdDoxMDt9JiN4YTsJLnN0N3tmaWxsOm5vbmU7c3Ryb2tlOiNGRkZGRkY7c3Ryb2tlLXdpZHRoOjQ7c3Ryb2tlLWxpbmVjYXA6cm91bmQ7c3Ryb2tlLW1pdGVybGltaXQ6MTA7fSYjeGE7CS5zdDh7ZmlsbDojRkZGRkZGO3N0cm9rZTojRkZGRkZGO3N0cm9rZS13aWR0aDo0O3N0cm9rZS1taXRlcmxpbWl0OjEwO30mI3hhOwkuc3Q5e2ZpbGw6I0ZGRkZGRjtzdHJva2U6I0ZGRkZGRjtzdHJva2Utd2lkdGg6NDt9JiN4YTsJLnN0MTB7ZmlsbDpub25lO3N0cm9rZTojRkZGRkZGO3N0cm9rZS13aWR0aDo0O30mI3hhOwkuc3QxMXtmaWxsOiMyNjI2MjY7c3Ryb2tlOiNGRkZGRkY7c3Ryb2tlLXdpZHRoOjQuMjMzMzt9JiN4YTsJLnN0MTJ7ZmlsbC1ydWxlOmV2ZW5vZGQ7Y2xpcC1ydWxlOmV2ZW5vZGQ7ZmlsbDpub25lO3N0cm9rZTojRkZGRkZGO3N0cm9rZS13aWR0aDo0O3N0cm9rZS1taXRlcmxpbWl0OjEwO30mI3hhOwkuc3QxM3tmaWxsLXJ1bGU6ZXZlbm9kZDtjbGlwLXJ1bGU6ZXZlbm9kZDtmaWxsOiNGRkZGRkY7c3Ryb2tlOiNGRkZGRkY7c3Ryb2tlLXdpZHRoOjQ7fSYjeGE7CS5zdDE0e2ZpbGw6bm9uZTtzdHJva2U6I0ZGRkZGRjtzdHJva2Utd2lkdGg6NC4yMzMzO3N0cm9rZS1saW5lY2FwOnJvdW5kO3N0cm9rZS1saW5lam9pbjpyb3VuZDt9JiN4YTsJLnN0MTV7ZmlsbDpub25lO3N0cm9rZTojRkZGRkZGO3N0cm9rZS13aWR0aDo0O3N0cm9rZS1saW5lY2FwOnJvdW5kO30mI3hhOwkuc3QxNntmaWxsOiNGRkZGRkY7c3Ryb2tlOiNGRkZGRkY7c3Ryb2tlLW1pdGVybGltaXQ6MTA7fSYjeGE7CS5zdDE3e2ZpbGw6IzI2MjYyNjtzdHJva2U6I0ZGRkZGRjtzdHJva2Utd2lkdGg6NDtzdHJva2UtbWl0ZXJsaW1pdDoxMDt9JiN4YTsJLnN0MTh7ZmlsbDojRkZGRkZGO3N0cm9rZTojRkZGRkZGO3N0cm9rZS13aWR0aDo0O3N0cm9rZS1saW5lY2FwOnJvdW5kO3N0cm9rZS1saW5lam9pbjpyb3VuZDt9JiN4YTs8L3N0eWxlPiYjeGE7PHJlY3QgaGVpZ2h0PSIxMjAiIHdpZHRoPSIxMjAiIGNsYXNzPSJzdDAiLz4mI3hhOzxnPiYjeGE7CTxnPiYjeGE7CQk8cGF0aCBkPSJNNzEuNywxOS43VjQ4aDI4IiBjbGFzcz0ic3QxIi8+JiN4YTsJCTxwYXRoIGQ9Ik05MS4yLDM4LjVsNy41LDcuNmMxLjMsMS4zLDEuMywzLjEsMCw0LjNMOTEuMSw1OCIgY2xhc3M9InN0MSIvPiYjeGE7CTwvZz4mI3hhOwk8Zz4mI3hhOwkJPHBhdGggZD0iTTIwLDQ3LjhoMjguNHYtMjgiIGNsYXNzPSJzdDEiLz4mI3hhOwkJPHBhdGggZD0iTTM4LjgsMjguM2w3LjYtNy41YzEuMy0xLjMsMy4xLTEuMyw0LjMsMGw3LjcsNy42IiBjbGFzcz0ic3QxIi8+JiN4YTsJPC9nPiYjeGE7CTxnPiYjeGE7CQk8cGF0aCBkPSJNNDgsMTAwLjNWNzJIMjAiIGNsYXNzPSJzdDEiLz4mI3hhOwkJPHBhdGggZD0iTTI4LjUsODEuNUwyMSw3My45Yy0xLjMtMS4zLTEuMy0zLjEsMC00LjNsNy42LTcuNyIgY2xhc3M9InN0MSIvPiYjeGE7CTwvZz4mI3hhOwk8Zz4mI3hhOwkJPHBhdGggZD0iTTEwMCw3MS45SDcxLjZ2MjgiIGNsYXNzPSJzdDEiLz4mI3hhOwkJPHBhdGggZD0iTTgxLjIsOTEuNGwtNy42LDcuNWMtMS4zLDEuMy0zLjEsMS4zLTQuMywwbC03LjctNy42IiBjbGFzcz0ic3QxIi8+JiN4YTsJPC9nPiYjeGE7PC9nPiYjeGE7PC9zdmc+" vertex="1" parent="1">
          <mxGeometry x="100" y="625.0" width="75" height="75" as="geometry" />
      </mxCell>
    </object><object id="clab-om-om-pe22" label="om-pe22">
      <mxCell style="shape=image;imageAlign=center;imageVerticalAlign=middle;labelPosition=left;align=right;verticalLabelPosition=top;spacingLeft=0;verticalAlign=bottom;spacingTop=0;spacing=0;fontColor=#F0F0F0;editableCssRules=\.st[0-2]$;labelBackgroundColor=none;aspect=fixed;imageAspect=0;image=data:image/svg+xml,PHN2ZyB4bWxuczp4bGluaz0iaHR0cDovL3d3dy53My5vcmcvMTk5OS94bGluayIgeG1sbnM9Imh0dHA6Ly93d3cudzMub3JnLzIwMDAvc3ZnIiB4bWw6c3BhY2U9InByZXNlcnZlIiBzdHlsZT0iZW5hYmxlLWJhY2tncm91bmQ6bmV3IDAgMCAxMjAgMTIwO2VkaXRhYmxlQ3NzUnVsZXM9Lio7IiB2aWV3Qm94PSIwIDAgMTIwIDEyMCIgeT0iMHB4IiB4PSIwcHgiIGlkPSJMYXllcl8xIiB2ZXJzaW9uPSIxLjEiPiYjeGE7PHN0eWxlIHR5cGU9InRleHQvY3NzIj4mI3hhOwkuc3Qwe2ZpbGw6IzAwMTEzNTt9JiN4YTsJLnN0MXtmaWxsOm5vbmU7c3Ryb2tlOiNGRkZGRkY7c3Ryb2tlLXdpZHRoOjQ7c3Ryb2tlLWxpbmVjYXA6cm91bmQ7c3Ryb2tlLWxpbmVqb2luOnJvdW5kO3N0cm9rZS1taXRlcmxpbWl0OjEwO30mI3hhOwkuc3Qye2ZpbGw6I0ZGRkZGRjt9JiN4YTsJLnN0M3tmaWxsOm5vbmU7c3Ryb2tlOiNGRkZGRkY7c3Ryb2tlLXdpZHRoOjQ7c3Ryb2tlLW1pdGVybGltaXQ6MTA7fSYjeGE7CS5zdDR7ZmlsbDpub25lO3N0cm9rZTojRkZGRkZGO3N0cm9rZS13aWR0aDo0O3N0cm9rZS1saW5lY2FwOnJvdW5kO3N0cm9rZS1saW5lam9pbjpyb3VuZDt9JiN4YTsJLnN0NXtmaWxsOiNGRkZGRkY7c3Ryb2tlOiNGRkZGRkY7c3Ryb2tlLXdpZHRoOjQ7c3Ryb2tlLWxpbmVjYXA6cm91bmQ7c3Ryb2tlLWxpbmVqb2luOnJvdW5kO3N0cm9rZS1taXRlcmxpbWl0OjEwO30mI3hhOwkuc3Q2e2ZpbGw6bm9uZTtzdHJva2U6I0ZGRkZGRjtzdHJva2Utd2lkdGg6NC4yMzMzO3N0cm9rZS1saW5lY2FwOnJvdW5kO3N0cm9rZS1saW5lam9pbjpyb3VuZDtzdHJva2UtbWl0ZXJsaW1pdDoxMDt9JiN4YTsJLnN0N3tmaWxsOm5vbmU7c3Ryb2tlOiNGRkZGRkY7c3Ryb2tlLXdpZHRoOjQ7c3Ryb2tlLWxpbmVjYXA6cm91bmQ7c3Ryb2tlLW1pdGVybGltaXQ6MTA7fSYjeGE7CS5zdDh7ZmlsbDojRkZGRkZGO3N0cm9rZTojRkZGRkZGO3N0cm9rZS13aWR0aDo0O3N0cm9rZS1taXRlcmxpbWl0OjEwO30mI3hhOwkuc3Q5e2ZpbGw6I0ZGRkZGRjtzdHJva2U6I0ZGRkZGRjtzdHJva2Utd2lkdGg6NDt9JiN4YTsJLnN0MTB7ZmlsbDpub25lO3N0cm9rZTojRkZGRkZGO3N0cm9rZS13aWR0aDo0O30mI3hhOwkuc3QxMXtmaWxsOiMyNjI2MjY7c3Ryb2tlOiNGRkZGRkY7c3Ryb2tlLXdpZHRoOjQuMjMzMzt9JiN4YTsJLnN0MTJ7ZmlsbC1ydWxlOmV2ZW5vZGQ7Y2xpcC1ydWxlOmV2ZW5vZGQ7ZmlsbDpub25lO3N0cm9rZTojRkZGRkZGO3N0cm9rZS13aWR0aDo0O3N0cm9rZS1taXRlcmxpbWl0OjEwO30mI3hhOwkuc3QxM3tmaWxsLXJ1bGU6ZXZlbm9kZDtjbGlwLXJ1bGU6ZXZlbm9kZDtmaWxsOiNGRkZGRkY7c3Ryb2tlOiNGRkZGRkY7c3Ryb2tlLXdpZHRoOjQ7fSYjeGE7CS5zdDE0e2ZpbGw6bm9uZTtzdHJva2U6I0ZGRkZGRjtzdHJva2Utd2lkdGg6NC4yMzMzO3N0cm9rZS1saW5lY2FwOnJvdW5kO3N0cm9rZS1saW5lam9pbjpyb3VuZDt9JiN4YTsJLnN0MTV7ZmlsbDpub25lO3N0cm9rZTojRkZGRkZGO3N0cm9rZS13aWR0aDo0O3N0cm9rZS1saW5lY2FwOnJvdW5kO30mI3hhOwkuc3QxNntmaWxsOiNGRkZGRkY7c3Ryb2tlOiNGRkZGRkY7c3Ryb2tlLW1pdGVybGltaXQ6MTA7fSYjeGE7CS5zdDE3e2ZpbGw6IzI2MjYyNjtzdHJva2U6I0ZGRkZGRjtzdHJva2Utd2lkdGg6NDtzdHJva2UtbWl0ZXJsaW1pdDoxMDt9JiN4YTsJLnN0MTh7ZmlsbDojRkZGRkZGO3N0cm9rZTojRkZGRkZGO3N0cm9rZS13aWR0aDo0O3N0cm9rZS1saW5lY2FwOnJvdW5kO3N0cm9rZS1saW5lam9pbjpyb3VuZDt9JiN4YTs8L3N0eWxlPiYjeGE7PHJlY3QgaGVpZ2h0PSIxMjAiIHdpZHRoPSIxMjAiIGNsYXNzPSJzdDAiLz4mI3hhOzxnPiYjeGE7CTxnPiYjeGE7CQk8cGF0aCBkPSJNNzEuNywxOS43VjQ4aDI4IiBjbGFzcz0ic3QxIi8+JiN4YTsJCTxwYXRoIGQ9Ik05MS4yLDM4LjVsNy41LDcuNmMxLjMsMS4zLDEuMywzLjEsMCw0LjNMOTEuMSw1OCIgY2xhc3M9InN0MSIvPiYjeGE7CTwvZz4mI3hhOwk8Zz4mI3hhOwkJPHBhdGggZD0iTTIwLDQ3LjhoMjguNHYtMjgiIGNsYXNzPSJzdDEiLz4mI3hhOwkJPHBhdGggZD0iTTM4LjgsMjguM2w3LjYtNy41YzEuMy0xLjMsMy4xLTEuMyw0LjMsMGw3LjcsNy42IiBjbGFzcz0ic3QxIi8+JiN4YTsJPC9nPiYjeGE7CTxnPiYjeGE7CQk8cGF0aCBkPSJNNDgsMTAwLjNWNzJIMjAiIGNsYXNzPSJzdDEiLz4mI3hhOwkJPHBhdGggZD0iTTI4LjUsODEuNUwyMSw3My45Yy0xLjMtMS4zLTEuMy0zLjEsMC00LjNsNy42LTcuNyIgY2xhc3M9InN0MSIvPiYjeGE7CTwvZz4mI3hhOwk8Zz4mI3hhOwkJPHBhdGggZD0iTTEwMCw3MS45SDcxLjZ2MjgiIGNsYXNzPSJzdDEiLz4mI3hhOwkJPHBhdGggZD0iTTgxLjIsOTEuNGwtNy42LDcuNWMtMS4zLDEuMy0zLjEsMS4zLTQuMywwbC03LjctNy42IiBjbGFzcz0ic3QxIi8+JiN4YTsJPC9nPiYjeGE7PC9nPiYjeGE7PC9zdmc+" vertex="1" parent="1">
          <mxGeometry x="100" y="800.0" width="75" height="75" as="geometry" />
      </mxCell>
    </object><object id="clab-om-client1" label="client1">
      <mxCell style="shape=image;imageAlign=center;imageVerticalAlign=middle;labelPosition=left;align=right;verticalLabelPosition=top;spacingLeft=0;verticalAlign=bottom;spacingTop=0;spacing=0;fontColor=#F0F0F0;editableCssRules=\.st[0-2]$;labelBackgroundColor=none;aspect=fixed;imageAspect=0;image=data:image/svg+xml,PHN2ZyB4bWxuczp4bGluaz0iaHR0cDovL3d3dy53My5vcmcvMTk5OS94bGluayIgeG1sbnM9Imh0dHA6Ly93d3cudzMub3JnLzIwMDAvc3ZnIiB4bWw6c3BhY2U9InByZXNlcnZlIiBzdHlsZT0iZW5hYmxlLWJhY2tncm91bmQ6bmV3IDAgMCAxMjAgMTIwOyIgdmlld0JveD0iMCAwIDEyMCAxMjAiIHk9IjBweCIgeD0iMHB4IiBpZD0iTGF5ZXJfMSIgdmVyc2lvbj0iMS4xIj4mI3hhOzxzdHlsZSB0eXBlPSJ0ZXh0L2NzcyI+JiN4YTsJLnN0MHtmaWxsOiMwMDExMzU7fSYjeGE7CS5zdDF7ZmlsbDpub25lO3N0cm9rZTojRkZGRkZGO3N0cm9rZS13aWR0aDo0O3N0cm9rZS1saW5lY2FwOnJvdW5kO3N0cm9rZS1saW5lam9pbjpyb3VuZDtzdHJva2UtbWl0ZXJsaW1pdDoxMDt9JiN4YTsJLnN0MntmaWxsOiNGRkZGRkY7fSYjeGE7CS5zdDN7ZmlsbDpub25lO3N0cm9rZTojRkZGRkZGO3N0cm9rZS13aWR0aDo0O3N0cm9rZS1taXRlcmxpbWl0OjEwO30mI3hhOwkuc3Q0e2ZpbGw6bm9uZTtzdHJva2U6I0ZGRkZGRjtzdHJva2Utd2lkdGg6NDtzdHJva2UtbGluZWNhcDpyb3VuZDtzdHJva2UtbGluZWpvaW46cm91bmQ7fSYjeGE7CS5zdDV7ZmlsbDojRkZGRkZGO3N0cm9rZTojRkZGRkZGO3N0cm9rZS13aWR0aDo0O3N0cm9rZS1saW5lY2FwOnJvdW5kO3N0cm9rZS1saW5lam9pbjpyb3VuZDtzdHJva2UtbWl0ZXJsaW1pdDoxMDt9JiN4YTsJLnN0NntmaWxsOm5vbmU7c3Ryb2tlOiNGRkZGRkY7c3Ryb2tlLXdpZHRoOjQuMjMzMztzdHJva2UtbGluZWNhcDpyb3VuZDtzdHJva2UtbGluZWpvaW46cm91bmQ7c3Ryb2tlLW1pdGVybGltaXQ6MTA7fSYjeGE7CS5zdDd7ZmlsbDpub25lO3N0cm9rZTojRkZGRkZGO3N0cm9rZS13aWR0aDo0O3N0cm9rZS1saW5lY2FwOnJvdW5kO3N0cm9rZS1taXRlcmxpbWl0OjEwO30mI3hhOwkuc3Q4e2ZpbGw6I0ZGRkZGRjtzdHJva2U6I0ZGRkZGRjtzdHJva2Utd2lkdGg6NDtzdHJva2UtbWl0ZXJsaW1pdDoxMDt9JiN4YTsJLnN0OXtmaWxsOiNGRkZGRkY7c3Ryb2tlOiNGRkZGRkY7c3Ryb2tlLXdpZHRoOjQ7fSYjeGE7CS5zdDEwe2ZpbGw6bm9uZTtzdHJva2U6I0ZGRkZGRjtzdHJva2Utd2lkdGg6NDt9JiN4YTsJLnN0MTF7ZmlsbDojMjYyNjI2O3N0cm9rZTojRkZGRkZGO3N0cm9rZS13aWR0aDo0LjIzMzM7fSYjeGE7CS5zdDEye2ZpbGwtcnVsZTpldmVub2RkO2NsaXAtcnVsZTpldmVub2RkO2ZpbGw6bm9uZTtzdHJva2U6I0ZGRkZGRjtzdHJva2Utd2lkdGg6NDtzdHJva2UtbWl0ZXJsaW1pdDoxMDt9JiN4YTsJLnN0MTN7ZmlsbC1ydWxlOmV2ZW5vZGQ7Y2xpcC1ydWxlOmV2ZW5vZGQ7ZmlsbDojRkZGRkZGO3N0cm9rZTojRkZGRkZGO3N0cm9rZS13aWR0aDo0O30mI3hhOwkuc3QxNHtmaWxsOm5vbmU7c3Ryb2tlOiNGRkZGRkY7c3Ryb2tlLXdpZHRoOjQuMjMzMztzdHJva2UtbGluZWNhcDpyb3VuZDtzdHJva2UtbGluZWpvaW46cm91bmQ7fSYjeGE7CS5zdDE1e2ZpbGw6bm9uZTtzdHJva2U6I0ZGRkZGRjtzdHJva2Utd2lkdGg6NDtzdHJva2UtbGluZWNhcDpyb3VuZDt9JiN4YTsJLnN0MTZ7ZmlsbDojRkZGRkZGO3N0cm9rZTojRkZGRkZGO3N0cm9rZS1taXRlcmxpbWl0OjEwO30mI3hhOwkuc3QxN3tmaWxsOiMyNjI2MjY7c3Ryb2tlOiNGRkZGRkY7c3Ryb2tlLXdpZHRoOjQ7c3Ryb2tlLW1pdGVybGltaXQ6MTA7fSYjeGE7CS5zdDE4e2ZpbGw6I0ZGRkZGRjtzdHJva2U6I0ZGRkZGRjtzdHJva2Utd2lkdGg6NDtzdHJva2UtbGluZWNhcDpyb3VuZDtzdHJva2UtbGluZWpvaW46cm91bmQ7fSYjeGE7PC9zdHlsZT4mI3hhOzxyZWN0IGhlaWdodD0iMTIwIiB3aWR0aD0iMTIwIiBjbGFzcz0ic3QwIi8+JiN4YTs8Zz4mI3hhOwk8cGF0aCBkPSJNMTAwLDkxLjFIMjBIMTAweiBNODkuMSwzMi41YzAtMC41LDAtMS0wLjItMS40Yy0wLjItMC41LTAuNC0wLjktMC44LTEuMmMtMC4zLTAuMy0wLjgtMC42LTEuMi0wLjgmIzEwOyYjOTsmIzk7Yy0wLjUtMC4yLTAuOS0wLjItMS40LTAuMkgzNC42Yy0wLjUsMC0xLDAtMS40LDAuMmMtMC41LDAuMi0wLjksMC40LTEuMiwwLjhjLTAuMywwLjMtMC42LDAuOC0wLjgsMS4yYy0wLjIsMC41LTAuMiwwLjktMC4yLDEuNCYjMTA7JiM5OyYjOTtWNzZoNTguMlYzMi41eiIgY2xhc3M9InN0NCIvPiYjeGE7PC9nPiYjeGE7PC9zdmc+" vertex="1" parent="1">
          <mxGeometry x="250" y="100.0" width="75" height="75" as="geometry" />
      </mxCell>
    </object><object id="clab-om-client2" label="client2">
      <mxCell style="shape=image;imageAlign=center;imageVerticalAlign=middle;labelPosition=left;align=right;verticalLabelPosition=top;spacingLeft=0;verticalAlign=bottom;spacingTop=0;spacing=0;fontColor=#F0F0F0;editableCssRules=\.st[0-2]$;labelBackgroundColor=none;aspect=fixed;imageAspect=0;image=data:image/svg+xml,PHN2ZyB4bWxuczp4bGluaz0iaHR0cDovL3d3dy53My5vcmcvMTk5OS94bGluayIgeG1sbnM9Imh0dHA6Ly93d3cudzMub3JnLzIwMDAvc3ZnIiB4bWw6c3BhY2U9InByZXNlcnZlIiBzdHlsZT0iZW5hYmxlLWJhY2tncm91bmQ6bmV3IDAgMCAxMjAgMTIwOyIgdmlld0JveD0iMCAwIDEyMCAxMjAiIHk9IjBweCIgeD0iMHB4IiBpZD0iTGF5ZXJfMSIgdmVyc2lvbj0iMS4xIj4mI3hhOzxzdHlsZSB0eXBlPSJ0ZXh0L2NzcyI+JiN4YTsJLnN0MHtmaWxsOiMwMDExMzU7fSYjeGE7CS5zdDF7ZmlsbDpub25lO3N0cm9rZTojRkZGRkZGO3N0cm9rZS13aWR0aDo0O3N0cm9rZS1saW5lY2FwOnJvdW5kO3N0cm9rZS1saW5lam9pbjpyb3VuZDtzdHJva2UtbWl0ZXJsaW1pdDoxMDt9JiN4YTsJLnN0MntmaWxsOiNGRkZGRkY7fSYjeGE7CS5zdDN7ZmlsbDpub25lO3N0cm9rZTojRkZGRkZGO3N0cm9rZS13aWR0aDo0O3N0cm9rZS1taXRlcmxpbWl0OjEwO30mI3hhOwkuc3Q0e2ZpbGw6bm9uZTtzdHJva2U6I0ZGRkZGRjtzdHJva2Utd2lkdGg6NDtzdHJva2UtbGluZWNhcDpyb3VuZDtzdHJva2UtbGluZWpvaW46cm91bmQ7fSYjeGE7CS5zdDV7ZmlsbDojRkZGRkZGO3N0cm9rZTojRkZGRkZGO3N0cm9rZS13aWR0aDo0O3N0cm9rZS1saW5lY2FwOnJvdW5kO3N0cm9rZS1saW5lam9pbjpyb3VuZDtzdHJva2UtbWl0ZXJsaW1pdDoxMDt9JiN4YTsJLnN0NntmaWxsOm5vbmU7c3Ryb2tlOiNGRkZGRkY7c3Ryb2tlLXdpZHRoOjQuMjMzMztzdHJva2UtbGluZWNhcDpyb3VuZDtzdHJva2UtbGluZWpvaW46cm91bmQ7c3Ryb2tlLW1pdGVybGltaXQ6MTA7fSYjeGE7CS5zdDd7ZmlsbDpub25lO3N0cm9rZTojRkZGRkZGO3N0cm9rZS13aWR0aDo0O3N0cm9rZS1saW5lY2FwOnJvdW5kO3N0cm9rZS1taXRlcmxpbWl0OjEwO30mI3hhOwkuc3Q4e2ZpbGw6I0ZGRkZGRjtzdHJva2U6I0ZGRkZGRjtzdHJva2Utd2lkdGg6NDtzdHJva2UtbWl0ZXJsaW1pdDoxMDt9JiN4YTsJLnN0OXtmaWxsOiNGRkZGRkY7c3Ryb2tlOiNGRkZGRkY7c3Ryb2tlLXdpZHRoOjQ7fSYjeGE7CS5zdDEwe2ZpbGw6bm9uZTtzdHJva2U6I0ZGRkZGRjtzdHJva2Utd2lkdGg6NDt9JiN4YTsJLnN0MTF7ZmlsbDojMjYyNjI2O3N0cm9rZTojRkZGRkZGO3N0cm9rZS13aWR0aDo0LjIzMzM7fSYjeGE7CS5zdDEye2ZpbGwtcnVsZTpldmVub2RkO2NsaXAtcnVsZTpldmVub2RkO2ZpbGw6bm9uZTtzdHJva2U6I0ZGRkZGRjtzdHJva2Utd2lkdGg6NDtzdHJva2UtbWl0ZXJsaW1pdDoxMDt9JiN4YTsJLnN0MTN7ZmlsbC1ydWxlOmV2ZW5vZGQ7Y2xpcC1ydWxlOmV2ZW5vZGQ7ZmlsbDojRkZGRkZGO3N0cm9rZTojRkZGRkZGO3N0cm9rZS13aWR0aDo0O30mI3hhOwkuc3QxNHtmaWxsOm5vbmU7c3Ryb2tlOiNGRkZGRkY7c3Ryb2tlLXdpZHRoOjQuMjMzMztzdHJva2UtbGluZWNhcDpyb3VuZDtzdHJva2UtbGluZWpvaW46cm91bmQ7fSYjeGE7CS5zdDE1e2ZpbGw6bm9uZTtzdHJva2U6I0ZGRkZGRjtzdHJva2Utd2lkdGg6NDtzdHJva2UtbGluZWNhcDpyb3VuZDt9JiN4YTsJLnN0MTZ7ZmlsbDojRkZGRkZGO3N0cm9rZTojRkZGRkZGO3N0cm9rZS1taXRlcmxpbWl0OjEwO30mI3hhOwkuc3QxN3tmaWxsOiMyNjI2MjY7c3Ryb2tlOiNGRkZGRkY7c3Ryb2tlLXdpZHRoOjQ7c3Ryb2tlLW1pdGVybGltaXQ6MTA7fSYjeGE7CS5zdDE4e2ZpbGw6I0ZGRkZGRjtzdHJva2U6I0ZGRkZGRjtzdHJva2Utd2lkdGg6NDtzdHJva2UtbGluZWNhcDpyb3VuZDtzdHJva2UtbGluZWpvaW46cm91bmQ7fSYjeGE7PC9zdHlsZT4mI3hhOzxyZWN0IGhlaWdodD0iMTIwIiB3aWR0aD0iMTIwIiBjbGFzcz0ic3QwIi8+JiN4YTs8Zz4mI3hhOwk8cGF0aCBkPSJNMTAwLDkxLjFIMjBIMTAweiBNODkuMSwzMi41YzAtMC41LDAtMS0wLjItMS40Yy0wLjItMC41LTAuNC0wLjktMC44LTEuMmMtMC4zLTAuMy0wLjgtMC42LTEuMi0wLjgmIzEwOyYjOTsmIzk7Yy0wLjUtMC4yLTAuOS0wLjItMS40LTAuMkgzNC42Yy0wLjUsMC0xLDAtMS40LDAuMmMtMC41LDAuMi0wLjksMC40LTEuMiwwLjhjLTAuMywwLjMtMC42LDAuOC0wLjgsMS4yYy0wLjIsMC41LTAuMiwwLjktMC4yLDEuNCYjMTA7JiM5OyYjOTtWNzZoNTguMlYzMi41eiIgY2xhc3M9InN0NCIvPiYjeGE7PC9nPiYjeGE7PC9zdmc+" vertex="1" parent="1">
          <mxGeometry x="250" y="275.0" width="75" height="75" as="geometry" />
      </mxCell>
    </object><object id="clab-om-client3" label="client3">
      <mxCell style="shape=image;imageAlign=center;imageVerticalAlign=middle;labelPosition=left;align=right;verticalLabelPosition=top;spacingLeft=0;verticalAlign=bottom;spacingTop=0;spacing=0;fontColor=#F0F0F0;editableCssRules=\.st[0-2]$;labelBackgroundColor=none;aspect=fixed;imageAspect=0;image=data:image/svg+xml,PHN2ZyB4bWxuczp4bGluaz0iaHR0cDovL3d3dy53My5vcmcvMTk5OS94bGluayIgeG1sbnM9Imh0dHA6Ly93d3cudzMub3JnLzIwMDAvc3ZnIiB4bWw6c3BhY2U9InByZXNlcnZlIiBzdHlsZT0iZW5hYmxlLWJhY2tncm91bmQ6bmV3IDAgMCAxMjAgMTIwOyIgdmlld0JveD0iMCAwIDEyMCAxMjAiIHk9IjBweCIgeD0iMHB4IiBpZD0iTGF5ZXJfMSIgdmVyc2lvbj0iMS4xIj4mI3hhOzxzdHlsZSB0eXBlPSJ0ZXh0L2NzcyI+JiN4YTsJLnN0MHtmaWxsOiMwMDExMzU7fSYjeGE7CS5zdDF7ZmlsbDpub25lO3N0cm9rZTojRkZGRkZGO3N0cm9rZS13aWR0aDo0O3N0cm9rZS1saW5lY2FwOnJvdW5kO3N0cm9rZS1saW5lam9pbjpyb3VuZDtzdHJva2UtbWl0ZXJsaW1pdDoxMDt9JiN4YTsJLnN0MntmaWxsOiNGRkZGRkY7fSYjeGE7CS5zdDN7ZmlsbDpub25lO3N0cm9rZTojRkZGRkZGO3N0cm9rZS13aWR0aDo0O3N0cm9rZS1taXRlcmxpbWl0OjEwO30mI3hhOwkuc3Q0e2ZpbGw6bm9uZTtzdHJva2U6I0ZGRkZGRjtzdHJva2Utd2lkdGg6NDtzdHJva2UtbGluZWNhcDpyb3VuZDtzdHJva2UtbGluZWpvaW46cm91bmQ7fSYjeGE7CS5zdDV7ZmlsbDojRkZGRkZGO3N0cm9rZTojRkZGRkZGO3N0cm9rZS13aWR0aDo0O3N0cm9rZS1saW5lY2FwOnJvdW5kO3N0cm9rZS1saW5lam9pbjpyb3VuZDtzdHJva2UtbWl0ZXJsaW1pdDoxMDt9JiN4YTsJLnN0NntmaWxsOm5vbmU7c3Ryb2tlOiNGRkZGRkY7c3Ryb2tlLXdpZHRoOjQuMjMzMztzdHJva2UtbGluZWNhcDpyb3VuZDtzdHJva2UtbGluZWpvaW46cm91bmQ7c3Ryb2tlLW1pdGVybGltaXQ6MTA7fSYjeGE7CS5zdDd7ZmlsbDpub25lO3N0cm9rZTojRkZGRkZGO3N0cm9rZS13aWR0aDo0O3N0cm9rZS1saW5lY2FwOnJvdW5kO3N0cm9rZS1taXRlcmxpbWl0OjEwO30mI3hhOwkuc3Q4e2ZpbGw6I0ZGRkZGRjtzdHJva2U6I0ZGRkZGRjtzdHJva2Utd2lkdGg6NDtzdHJva2UtbWl0ZXJsaW1pdDoxMDt9JiN4YTsJLnN0OXtmaWxsOiNGRkZGRkY7c3Ryb2tlOiNGRkZGRkY7c3Ryb2tlLXdpZHRoOjQ7fSYjeGE7CS5zdDEwe2ZpbGw6bm9uZTtzdHJva2U6I0ZGRkZGRjtzdHJva2Utd2lkdGg6NDt9JiN4YTsJLnN0MTF7ZmlsbDojMjYyNjI2O3N0cm9rZTojRkZGRkZGO3N0cm9rZS13aWR0aDo0LjIzMzM7fSYjeGE7CS5zdDEye2ZpbGwtcnVsZTpldmVub2RkO2NsaXAtcnVsZTpldmVub2RkO2ZpbGw6bm9uZTtzdHJva2U6I0ZGRkZGRjtzdHJva2Utd2lkdGg6NDtzdHJva2UtbWl0ZXJsaW1pdDoxMDt9JiN4YTsJLnN0MTN7ZmlsbC1ydWxlOmV2ZW5vZGQ7Y2xpcC1ydWxlOmV2ZW5vZGQ7ZmlsbDojRkZGRkZGO3N0cm9rZTojRkZGRkZGO3N0cm9rZS13aWR0aDo0O30mI3hhOwkuc3QxNHtmaWxsOm5vbmU7c3Ryb2tlOiNGRkZGRkY7c3Ryb2tlLXdpZHRoOjQuMjMzMztzdHJva2UtbGluZWNhcDpyb3VuZDtzdHJva2UtbGluZWpvaW46cm91bmQ7fSYjeGE7CS5zdDE1e2ZpbGw6bm9uZTtzdHJva2U6I0ZGRkZGRjtzdHJva2Utd2lkdGg6NDtzdHJva2UtbGluZWNhcDpyb3VuZDt9JiN4YTsJLnN0MTZ7ZmlsbDojRkZGRkZGO3N0cm9rZTojRkZGRkZGO3N0cm9rZS1taXRlcmxpbWl0OjEwO30mI3hhOwkuc3QxN3tmaWxsOiMyNjI2MjY7c3Ryb2tlOiNGRkZGRkY7c3Ryb2tlLXdpZHRoOjQ7c3Ryb2tlLW1pdGVybGltaXQ6MTA7fSYjeGE7CS5zdDE4e2ZpbGw6I0ZGRkZGRjtzdHJva2U6I0ZGRkZGRjtzdHJva2Utd2lkdGg6NDtzdHJva2UtbGluZWNhcDpyb3VuZDtzdHJva2UtbGluZWpvaW46cm91bmQ7fSYjeGE7PC9zdHlsZT4mI3hhOzxyZWN0IGhlaWdodD0iMTIwIiB3aWR0aD0iMTIwIiBjbGFzcz0ic3QwIi8+JiN4YTs8Zz4mI3hhOwk8cGF0aCBkPSJNMTAwLDkxLjFIMjBIMTAweiBNODkuMSwzMi41YzAtMC41LDAtMS0wLjItMS40Yy0wLjItMC41LTAuNC0wLjktMC44LTEuMmMtMC4zLTAuMy0wLjgtMC42LTEuMi0wLjgmIzEwOyYjOTsmIzk7Yy0wLjUtMC4yLTAuOS0wLjItMS40LTAuMkgzNC42Yy0wLjUsMC0xLDAtMS40LDAuMmMtMC41LDAuMi0wLjksMC40LTEuMiwwLjhjLTAuMywwLjMtMC42LDAuOC0wLjgsMS4yYy0wLjIsMC41LTAuMiwwLjktMC4yLDEuNCYjMTA7JiM5OyYjOTtWNzZoNTguMlYzMi41eiIgY2xhc3M9InN0NCIvPiYjeGE7PC9nPiYjeGE7PC9zdmc+" vertex="1" parent="1">
          <mxGeometry x="250" y="450.0" width="75" height="75" as="geometry" />
      </mxCell>
    </object><object id="clab-om-client4" label="client4">
      <mxCell style="shape=image;imageAlign=center;imageVerticalAlign=middle;labelPosition=left;align=right;verticalLabelPosition=top;spacingLeft=0;verticalAlign=bottom;spacingTop=0;spacing=0;fontColor=#F0F0F0;editableCssRules=\.st[0-2]$;labelBackgroundColor=none;aspect=fixed;imageAspect=0;image=data:image/svg+xml,PHN2ZyB4bWxuczp4bGluaz0iaHR0cDovL3d3dy53My5vcmcvMTk5OS94bGluayIgeG1sbnM9Imh0dHA6Ly93d3cudzMub3JnLzIwMDAvc3ZnIiB4bWw6c3BhY2U9InByZXNlcnZlIiBzdHlsZT0iZW5hYmxlLWJhY2tncm91bmQ6bmV3IDAgMCAxMjAgMTIwOyIgdmlld0JveD0iMCAwIDEyMCAxMjAiIHk9IjBweCIgeD0iMHB4IiBpZD0iTGF5ZXJfMSIgdmVyc2lvbj0iMS4xIj4mI3hhOzxzdHlsZSB0eXBlPSJ0ZXh0L2NzcyI+JiN4YTsJLnN0MHtmaWxsOiMwMDExMzU7fSYjeGE7CS5zdDF7ZmlsbDpub25lO3N0cm9rZTojRkZGRkZGO3N0cm9rZS13aWR0aDo0O3N0cm9rZS1saW5lY2FwOnJvdW5kO3N0cm9rZS1saW5lam9pbjpyb3VuZDtzdHJva2UtbWl0ZXJsaW1pdDoxMDt9JiN4YTsJLnN0MntmaWxsOiNGRkZGRkY7fSYjeGE7CS5zdDN7ZmlsbDpub25lO3N0cm9rZTojRkZGRkZGO3N0cm9rZS13aWR0aDo0O3N0cm9rZS1taXRlcmxpbWl0OjEwO30mI3hhOwkuc3Q0e2ZpbGw6bm9uZTtzdHJva2U6I0ZGRkZGRjtzdHJva2Utd2lkdGg6NDtzdHJva2UtbGluZWNhcDpyb3VuZDtzdHJva2UtbGluZWpvaW46cm91bmQ7fSYjeGE7CS5zdDV7ZmlsbDojRkZGRkZGO3N0cm9rZTojRkZGRkZGO3N0cm9rZS13aWR0aDo0O3N0cm9rZS1saW5lY2FwOnJvdW5kO3N0cm9rZS1saW5lam9pbjpyb3VuZDtzdHJva2UtbWl0ZXJsaW1pdDoxMDt9JiN4YTsJLnN0NntmaWxsOm5vbmU7c3Ryb2tlOiNGRkZGRkY7c3Ryb2tlLXdpZHRoOjQuMjMzMztzdHJva2UtbGluZWNhcDpyb3VuZDtzdHJva2UtbGluZWpvaW46cm91bmQ7c3Ryb2tlLW1pdGVybGltaXQ6MTA7fSYjeGE7CS5zdDd7ZmlsbDpub25lO3N0cm9rZTojRkZGRkZGO3N0cm9rZS13aWR0aDo0O3N0cm9rZS1saW5lY2FwOnJvdW5kO3N0cm9rZS1taXRlcmxpbWl0OjEwO30mI3hhOwkuc3Q4e2ZpbGw6I0ZGRkZGRjtzdHJva2U6I0ZGRkZGRjtzdHJva2Utd2lkdGg6NDtzdHJva2UtbWl0ZXJsaW1pdDoxMDt9JiN4YTsJLnN0OXtmaWxsOiNGRkZGRkY7c3Ryb2tlOiNGRkZGRkY7c3Ryb2tlLXdpZHRoOjQ7fSYjeGE7CS5zdDEwe2ZpbGw6bm9uZTtzdHJva2U6I0ZGRkZGRjtzdHJva2Utd2lkdGg6NDt9JiN4YTsJLnN0MTF7ZmlsbDojMjYyNjI2O3N0cm9rZTojRkZGRkZGO3N0cm9rZS13aWR0aDo0LjIzMzM7fSYjeGE7CS5zdDEye2ZpbGwtcnVsZTpldmVub2RkO2NsaXAtcnVsZTpldmVub2RkO2ZpbGw6bm9uZTtzdHJva2U6I0ZGRkZGRjtzdHJva2Utd2lkdGg6NDtzdHJva2UtbWl0ZXJsaW1pdDoxMDt9JiN4YTsJLnN0MTN7ZmlsbC1ydWxlOmV2ZW5vZGQ7Y2xpcC1ydWxlOmV2ZW5vZGQ7ZmlsbDojRkZGRkZGO3N0cm9rZTojRkZGRkZGO3N0cm9rZS13aWR0aDo0O30mI3hhOwkuc3QxNHtmaWxsOm5vbmU7c3Ryb2tlOiNGRkZGRkY7c3Ryb2tlLXdpZHRoOjQuMjMzMztzdHJva2UtbGluZWNhcDpyb3VuZDtzdHJva2UtbGluZWpvaW46cm91bmQ7fSYjeGE7CS5zdDE1e2ZpbGw6bm9uZTtzdHJva2U6I0ZGRkZGRjtzdHJva2Utd2lkdGg6NDtzdHJva2UtbGluZWNhcDpyb3VuZDt9JiN4YTsJLnN0MTZ7ZmlsbDojRkZGRkZGO3N0cm9rZTojRkZGRkZGO3N0cm9rZS1taXRlcmxpbWl0OjEwO30mI3hhOwkuc3QxN3tmaWxsOiMyNjI2MjY7c3Ryb2tlOiNGRkZGRkY7c3Ryb2tlLXdpZHRoOjQ7c3Ryb2tlLW1pdGVybGltaXQ6MTA7fSYjeGE7CS5zdDE4e2ZpbGw6I0ZGRkZGRjtzdHJva2U6I0ZGRkZGRjtzdHJva2Utd2lkdGg6NDtzdHJva2UtbGluZWNhcDpyb3VuZDtzdHJva2UtbGluZWpvaW46cm91bmQ7fSYjeGE7PC9zdHlsZT4mI3hhOzxyZWN0IGhlaWdodD0iMTIwIiB3aWR0aD0iMTIwIiBjbGFzcz0ic3QwIi8+JiN4YTs8Zz4mI3hhOwk8cGF0aCBkPSJNMTAwLDkxLjFIMjBIMTAweiBNODkuMSwzMi41YzAtMC41LDAtMS0wLjItMS40Yy0wLjItMC41LTAuNC0wLjktMC44LTEuMmMtMC4zLTAuMy0wLjgtMC42LTEuMi0wLjgmIzEwOyYjOTsmIzk7Yy0wLjUtMC4yLTAuOS0wLjItMS40LTAuMkgzNC42Yy0wLjUsMC0xLDAtMS40LDAuMmMtMC41LDAuMi0wLjksMC40LTEuMiwwLjhjLTAuMywwLjMtMC42LDAuOC0wLjgsMS4yYy0wLjIsMC41LTAuMiwwLjktMC4yLDEuNCYjMTA7JiM5OyYjOTtWNzZoNTguMlYzMi41eiIgY2xhc3M9InN0NCIvPiYjeGE7PC9nPiYjeGE7PC9zdmc+" vertex="1" parent="1">
          <mxGeometry x="250" y="625.0" width="75" height="75" as="geometry" />
      </mxCell>
    </object><mxCell id="link_id:link:clab-om-om-pe11:eth1:clab-om-om-spine1:eth1-src" value="eth1" style="edgeLabel;html=1;align=center;verticalAlign=middle;resizable=0;points=[];fontColor=#FFFFFF;labelBackgroundColor=#4D5766;" vertex="1" connectable="0" parent="link_id:link:clab-om-om-pe11:eth1:clab-om-om-spine1:eth1">
      <mxGeometry x="-0.5" relative="1" as="geometry">
        <mxPoint as="offset" />
      </mxGeometry>
    </mxCell><mxCell id="link_id:link:clab-om-om-pe11:eth1:clab-om-om-spine1:eth1-trgt" value="eth1" style="edgeLabel;html=1;align=center;verticalAlign=middle;resizable=0;points=[];fontColor=#FFFFFF;labelBackgroundColor=#4D5766;" vertex="1" connectable="0" parent="link_id:link:clab-om-om-pe11:eth1:clab-om-om-spine1:eth1">
      <mxGeometry x="0.5" relative="-1" as="geometry">
        <mxPoint as="offset" />
      </mxGeometry>
    </mxCell><object id="link_id:link:clab-om-om-pe11:eth1:clab-om-om-spine1:eth1" label="" src_label="eth1" trgt_label="eth1" source="clab-om-om-pe11" target="clab-om-om-spine1">
      <mxCell style="endArrow=none;html=1;startSize=6;fontSize=14;strokeColor=#98A2AE;fontColor=#FFFFFF;textOpacity=100;labelBackgroundColor=#4D5766;jumpStyle=gap;strokeWidth=3;entryY=0.5;exitY=0.5;entryX=0;exitX=1;" edge="1" parent="1" source="clab-om-om-pe11" target="clab-om-om-spine1">
          <mxGeometry relative="1" as="geometry" />
      </mxCell>
    </object><mxCell id="link_id:link:clab-om-om-pe11:eth2:clab-om-om-spine2:eth1-src" value="eth2" style="edgeLabel;html=1;align=center;verticalAlign=middle;resizable=0;points=[];fontColor=#FFFFFF;labelBackgroundColor=#4D5766;" vertex="1" connectable="0" parent="link_id:link:clab-om-om-pe11:eth2:clab-om-om-spine2:eth1">
      <mxGeometry x="-0.5" relative="1" as="geometry">
        <mxPoint as="offset" />
      </mxGeometry>
    </mxCell><mxCell id="link_id:link:clab-om-om-pe11:eth2:clab-om-om-spine2:eth1-trgt" value="eth1" style="edgeLabel;html=1;align=center;verticalAlign=middle;resizable=0;points=[];fontColor=#FFFFFF;labelBackgroundColor=#4D5766;" vertex="1" connectable="0" parent="link_id:link:clab-om-om-pe11:eth2:clab-om-om-spine2:eth1">
      <mxGeometry x="0.5" relative="-1" as="geometry">
        <mxPoint as="offset" />
      </mxGeometry>
    </mxCell><object id="link_id:link:clab-om-om-pe11:eth2:clab-om-om-spine2:eth1" label="" src_label="eth2" trgt_label="eth1" source="clab-om-om-pe11" target="clab-om-om-spine2">
      <mxCell style="endArrow=none;html=1;startSize=6;fontSize=14;strokeColor=#98A2AE;fontColor=#FFFFFF;textOpacity=100;labelBackgroundColor=#4D5766;jumpStyle=gap;strokeWidth=3;entryY=0.5;exitY=0.5;entryX=0;exitX=1;" edge="1" parent="1" source="clab-om-om-pe11" target="clab-om-om-spine2">
          <mxGeometry relative="1" as="geometry" />
      </mxCell>
    </object><mxCell id="link_id:link:clab-om-om-pe11:eth3:clab-om-client1:eth1-src" value="eth3" style="edgeLabel;html=1;align=center;verticalAlign=middle;resizable=0;points=[];fontColor=#FFFFFF;labelBackgroundColor=#4D5766;" vertex="1" connectable="0" parent="link_id:link:clab-om-om-pe11:eth3:clab-om-client1:eth1">
      <mxGeometry x="-0.5" relative="1" as="geometry">
        <mxPoint as="offset" />
      </mxGeometry>
    </mxCell><mxCell id="link_id:link:clab-om-om-pe11:eth3:clab-om-client1:eth1-trgt" value="eth1" style="edgeLabel;html=1;align=center;verticalAlign=middle;resizable=0;points=[];fontColor=#FFFFFF;labelBackgroundColor=#4D5766;" vertex="1" connectable="0" parent="link_id:link:clab-om-om-pe11:eth3:clab-om-client1:eth1">
      <mxGeometry x="0.5" relative="-1" as="geometry">
        <mxPoint as="offset" />
      </mxGeometry>
    </mxCell><object id="link_id:link:clab-om-om-pe11:eth3:clab-om-client1:eth1" label="" src_label="eth3" trgt_label="eth1" source="clab-om-om-pe11" target="clab-om-client1">
      <mxCell style="endArrow=none;html=1;startSize=6;fontSize=14;strokeColor=#98A2AE;fontColor=#FFFFFF;textOpacity=100;labelBackgroundColor=#4D5766;jumpStyle=gap;strokeWidth=3;entryY=0.5;exitY=0.5;entryX=0;exitX=1;" edge="1" parent="1" source="clab-om-om-pe11" target="clab-om-client1">
          <mxGeometry relative="1" as="geometry" />
      </mxCell>
    </object><mxCell id="link_id:link:clab-om-om-pe11:eth4:clab-om-client2:eth1-src" value="eth4" style="edgeLabel;html=1;align=center;verticalAlign=middle;resizable=0;points=[];fontColor=#FFFFFF;labelBackgroundColor=#4D5766;" vertex="1" connectable="0" parent="link_id:link:clab-om-om-pe11:eth4:clab-om-client2:eth1">
      <mxGeometry x="-0.5" relative="1" as="geometry">
        <mxPoint as="offset" />
      </mxGeometry>
    </mxCell><mxCell id="link_id:link:clab-om-om-pe11:eth4:clab-om-client2:eth1-trgt" value="eth1" style="edgeLabel;html=1;align=center;verticalAlign=middle;resizable=0;points=[];fontColor=#FFFFFF;labelBackgroundColor=#4D5766;" vertex="1" connectable="0" parent="link_id:link:clab-om-om-pe11:eth4:clab-om-client2:eth1">
      <mxGeometry x="0.5" relative="-1" as="geometry">
        <mxPoint as="offset" />
      </mxGeometry>
    </mxCell><object id="link_id:link:clab-om-om-pe11:eth4:clab-om-client2:eth1" label="" src_label="eth4" trgt_label="eth1" source="clab-om-om-pe11" target="clab-om-client2">
      <mxCell style="endArrow=none;html=1;startSize=6;fontSize=14;strokeColor=#98A2AE;fontColor=#FFFFFF;textOpacity=100;labelBackgroundColor=#4D5766;jumpStyle=gap;strokeWidth=3;entryY=0.5;exitY=0.5;entryX=0;exitX=1;" edge="1" parent="1" source="clab-om-om-pe11" target="clab-om-client2">
          <mxGeometry relative="1" as="geometry" />
      </mxCell>
    </object><mxCell id="link_id:link:clab-om-om-pe12:eth1:clab-om-om-spine1:eth2-src" value="eth1" style="edgeLabel;html=1;align=center;verticalAlign=middle;resizable=0;points=[];fontColor=#FFFFFF;labelBackgroundColor=#4D5766;" vertex="1" connectable="0" parent="link_id:link:clab-om-om-pe12:eth1:clab-om-om-spine1:eth2">
      <mxGeometry x="-0.5" relative="1" as="geometry">
        <mxPoint as="offset" />
      </mxGeometry>
    </mxCell><mxCell id="link_id:link:clab-om-om-pe12:eth1:clab-om-om-spine1:eth2-trgt" value="eth2" style="edgeLabel;html=1;align=center;verticalAlign=middle;resizable=0;points=[];fontColor=#FFFFFF;labelBackgroundColor=#4D5766;" vertex="1" connectable="0" parent="link_id:link:clab-om-om-pe12:eth1:clab-om-om-spine1:eth2">
      <mxGeometry x="0.5" relative="-1" as="geometry">
        <mxPoint as="offset" />
      </mxGeometry>
    </mxCell><object id="link_id:link:clab-om-om-pe12:eth1:clab-om-om-spine1:eth2" label="" src_label="eth1" trgt_label="eth2" source="clab-om-om-pe12" target="clab-om-om-spine1">
      <mxCell style="endArrow=none;html=1;startSize=6;fontSize=14;strokeColor=#98A2AE;fontColor=#FFFFFF;textOpacity=100;labelBackgroundColor=#4D5766;jumpStyle=gap;strokeWidth=3;entryY=0.5;exitY=0.5;entryX=0;exitX=1;" edge="1" parent="1" source="clab-om-om-pe12" target="clab-om-om-spine1">
          <mxGeometry relative="1" as="geometry" />
      </mxCell>
    </object><mxCell id="link_id:link:clab-om-om-pe12:eth2:clab-om-om-spine2:eth2-src" value="eth2" style="edgeLabel;html=1;align=center;verticalAlign=middle;resizable=0;points=[];fontColor=#FFFFFF;labelBackgroundColor=#4D5766;" vertex="1" connectable="0" parent="link_id:link:clab-om-om-pe12:eth2:clab-om-om-spine2:eth2">
      <mxGeometry x="-0.5" relative="1" as="geometry">
        <mxPoint as="offset" />
      </mxGeometry>
    </mxCell><mxCell id="link_id:link:clab-om-om-pe12:eth2:clab-om-om-spine2:eth2-trgt" value="eth2" style="edgeLabel;html=1;align=center;verticalAlign=middle;resizable=0;points=[];fontColor=#FFFFFF;labelBackgroundColor=#4D5766;" vertex="1" connectable="0" parent="link_id:link:clab-om-om-pe12:eth2:clab-om-om-spine2:eth2">
      <mxGeometry x="0.5" relative="-1" as="geometry">
        <mxPoint as="offset" />
      </mxGeometry>
    </mxCell><object id="link_id:link:clab-om-om-pe12:eth2:clab-om-om-spine2:eth2" label="" src_label="eth2" trgt_label="eth2" source="clab-om-om-pe12" target="clab-om-om-spine2">
      <mxCell style="endArrow=none;html=1;startSize=6;fontSize=14;strokeColor=#98A2AE;fontColor=#FFFFFF;textOpacity=100;labelBackgroundColor=#4D5766;jumpStyle=gap;strokeWidth=3;entryY=0.5;exitY=0.5;entryX=0;exitX=1;" edge="1" parent="1" source="clab-om-om-pe12" target="clab-om-om-spine2">
          <mxGeometry relative="1" as="geometry" />
      </mxCell>
    </object><mxCell id="link_id:link:clab-om-om-pe12:eth3:clab-om-client1:eth2-src" value="eth3" style="edgeLabel;html=1;align=center;verticalAlign=middle;resizable=0;points=[];fontColor=#FFFFFF;labelBackgroundColor=#4D5766;" vertex="1" connectable="0" parent="link_id:link:clab-om-om-pe12:eth3:clab-om-client1:eth2">
      <mxGeometry x="-0.5" relative="1" as="geometry">
        <mxPoint as="offset" />
      </mxGeometry>
    </mxCell><mxCell id="link_id:link:clab-om-om-pe12:eth3:clab-om-client1:eth2-trgt" value="eth2" style="edgeLabel;html=1;align=center;verticalAlign=middle;resizable=0;points=[];fontColor=#FFFFFF;labelBackgroundColor=#4D5766;" vertex="1" connectable="0" parent="link_id:link:clab-om-om-pe12:eth3:clab-om-client1:eth2">
      <mxGeometry x="0.5" relative="-1" as="geometry">
        <mxPoint as="offset" />
      </mxGeometry>
    </mxCell><object id="link_id:link:clab-om-om-pe12:eth3:clab-om-client1:eth2" label="" src_label="eth3" trgt_label="eth2" source="clab-om-om-pe12" target="clab-om-client1">
      <mxCell style="endArrow=none;html=1;startSize=6;fontSize=14;strokeColor=#98A2AE;fontColor=#FFFFFF;textOpacity=100;labelBackgroundColor=#4D5766;jumpStyle=gap;strokeWidth=3;entryY=0.5;exitY=0.5;entryX=0;exitX=1;" edge="1" parent="1" source="clab-om-om-pe12" target="clab-om-client1">
          <mxGeometry relative="1" as="geometry" />
      </mxCell>
    </object><mxCell id="link_id:link:clab-om-om-pe12:eth4:clab-om-client2:eth2-src" value="eth4" style="edgeLabel;html=1;align=center;verticalAlign=middle;resizable=0;points=[];fontColor=#FFFFFF;labelBackgroundColor=#4D5766;" vertex="1" connectable="0" parent="link_id:link:clab-om-om-pe12:eth4:clab-om-client2:eth2">
      <mxGeometry x="-0.5" relative="1" as="geometry">
        <mxPoint as="offset" />
      </mxGeometry>
    </mxCell><mxCell id="link_id:link:clab-om-om-pe12:eth4:clab-om-client2:eth2-trgt" value="eth2" style="edgeLabel;html=1;align=center;verticalAlign=middle;resizable=0;points=[];fontColor=#FFFFFF;labelBackgroundColor=#4D5766;" vertex="1" connectable="0" parent="link_id:link:clab-om-om-pe12:eth4:clab-om-client2:eth2">
      <mxGeometry x="0.5" relative="-1" as="geometry">
        <mxPoint as="offset" />
      </mxGeometry>
    </mxCell><object id="link_id:link:clab-om-om-pe12:eth4:clab-om-client2:eth2" label="" src_label="eth4" trgt_label="eth2" source="clab-om-om-pe12" target="clab-om-client2">
      <mxCell style="endArrow=none;html=1;startSize=6;fontSize=14;strokeColor=#98A2AE;fontColor=#FFFFFF;textOpacity=100;labelBackgroundColor=#4D5766;jumpStyle=gap;strokeWidth=3;entryY=0.5;exitY=0.5;entryX=0;exitX=1;" edge="1" parent="1" source="clab-om-om-pe12" target="clab-om-client2">
          <mxGeometry relative="1" as="geometry" />
      </mxCell>
    </object><mxCell id="link_id:link:clab-om-om-pe21:eth1:clab-om-om-spine1:eth3-src" value="eth1" style="edgeLabel;html=1;align=center;verticalAlign=middle;resizable=0;points=[];fontColor=#FFFFFF;labelBackgroundColor=#4D5766;" vertex="1" connectable="0" parent="link_id:link:clab-om-om-pe21:eth1:clab-om-om-spine1:eth3">
      <mxGeometry x="-0.5" relative="1" as="geometry">
        <mxPoint as="offset" />
      </mxGeometry>
    </mxCell><mxCell id="link_id:link:clab-om-om-pe21:eth1:clab-om-om-spine1:eth3-trgt" value="eth3" style="edgeLabel;html=1;align=center;verticalAlign=middle;resizable=0;points=[];fontColor=#FFFFFF;labelBackgroundColor=#4D5766;" vertex="1" connectable="0" parent="link_id:link:clab-om-om-pe21:eth1:clab-om-om-spine1:eth3">
      <mxGeometry x="0.5" relative="-1" as="geometry">
        <mxPoint as="offset" />
      </mxGeometry>
    </mxCell><object id="link_id:link:clab-om-om-pe21:eth1:clab-om-om-spine1:eth3" label="" src_label="eth1" trgt_label="eth3" source="clab-om-om-pe21" target="clab-om-om-spine1">
      <mxCell style="endArrow=none;html=1;startSize=6;fontSize=14;strokeColor=#98A2AE;fontColor=#FFFFFF;textOpacity=100;labelBackgroundColor=#4D5766;jumpStyle=gap;strokeWidth=3;entryY=0.5;exitY=0.5;entryX=0;exitX=1;" edge="1" parent="1" source="clab-om-om-pe21" target="clab-om-om-spine1">
          <mxGeometry relative="1" as="geometry" />
      </mxCell>
    </object><mxCell id="link_id:link:clab-om-om-pe21:eth2:clab-om-om-spine2:eth3-src" value="eth2" style="edgeLabel;html=1;align=center;verticalAlign=middle;resizable=0;points=[];fontColor=#FFFFFF;labelBackgroundColor=#4D5766;" vertex="1" connectable="0" parent="link_id:link:clab-om-om-pe21:eth2:clab-om-om-spine2:eth3">
      <mxGeometry x="-0.5" relative="1" as="geometry">
        <mxPoint as="offset" />
      </mxGeometry>
    </mxCell><mxCell id="link_id:link:clab-om-om-pe21:eth2:clab-om-om-spine2:eth3-trgt" value="eth3" style="edgeLabel;html=1;align=center;verticalAlign=middle;resizable=0;points=[];fontColor=#FFFFFF;labelBackgroundColor=#4D5766;" vertex="1" connectable="0" parent="link_id:link:clab-om-om-pe21:eth2:clab-om-om-spine2:eth3">
      <mxGeometry x="0.5" relative="-1" as="geometry">
        <mxPoint as="offset" />
      </mxGeometry>
    </mxCell><object id="link_id:link:clab-om-om-pe21:eth2:clab-om-om-spine2:eth3" label="" src_label="eth2" trgt_label="eth3" source="clab-om-om-pe21" target="clab-om-om-spine2">
      <mxCell style="endArrow=none;html=1;startSize=6;fontSize=14;strokeColor=#98A2AE;fontColor=#FFFFFF;textOpacity=100;labelBackgroundColor=#4D5766;jumpStyle=gap;strokeWidth=3;entryY=0.5;exitY=0.5;entryX=0;exitX=1;" edge="1" parent="1" source="clab-om-om-pe21" target="clab-om-om-spine2">
          <mxGeometry relative="1" as="geometry" />
      </mxCell>
    </object><mxCell id="link_id:link:clab-om-om-pe21:eth3:clab-om-client3:eth1-src" value="eth3" style="edgeLabel;html=1;align=center;verticalAlign=middle;resizable=0;points=[];fontColor=#FFFFFF;labelBackgroundColor=#4D5766;" vertex="1" connectable="0" parent="link_id:link:clab-om-om-pe21:eth3:clab-om-client3:eth1">
      <mxGeometry x="-0.5" relative="1" as="geometry">
        <mxPoint as="offset" />
      </mxGeometry>
    </mxCell><mxCell id="link_id:link:clab-om-om-pe21:eth3:clab-om-client3:eth1-trgt" value="eth1" style="edgeLabel;html=1;align=center;verticalAlign=middle;resizable=0;points=[];fontColor=#FFFFFF;labelBackgroundColor=#4D5766;" vertex="1" connectable="0" parent="link_id:link:clab-om-om-pe21:eth3:clab-om-client3:eth1">
      <mxGeometry x="0.5" relative="-1" as="geometry">
        <mxPoint as="offset" />
      </mxGeometry>
    </mxCell><object id="link_id:link:clab-om-om-pe21:eth3:clab-om-client3:eth1" label="" src_label="eth3" trgt_label="eth1" source="clab-om-om-pe21" target="clab-om-client3">
      <mxCell style="endArrow=none;html=1;startSize=6;fontSize=14;strokeColor=#98A2AE;fontColor=#FFFFFF;textOpacity=100;labelBackgroundColor=#4D5766;jumpStyle=gap;strokeWidth=3;entryY=0.5;exitY=0.5;entryX=0;exitX=1;" edge="1" parent="1" source="clab-om-om-pe21" target="clab-om-client3">
          <mxGeometry relative="1" as="geometry" />
      </mxCell>
    </object><mxCell id="link_id:link:clab-om-om-pe21:eth4:clab-om-client4:eth1-src" value="eth4" style="edgeLabel;html=1;align=center;verticalAlign=middle;resizable=0;points=[];fontColor=#FFFFFF;labelBackgroundColor=#4D5766;" vertex="1" connectable="0" parent="link_id:link:clab-om-om-pe21:eth4:clab-om-client4:eth1">
      <mxGeometry x="-0.5" relative="1" as="geometry">
        <mxPoint as="offset" />
      </mxGeometry>
    </mxCell><mxCell id="link_id:link:clab-om-om-pe21:eth4:clab-om-client4:eth1-trgt" value="eth1" style="edgeLabel;html=1;align=center;verticalAlign=middle;resizable=0;points=[];fontColor=#FFFFFF;labelBackgroundColor=#4D5766;" vertex="1" connectable="0" parent="link_id:link:clab-om-om-pe21:eth4:clab-om-client4:eth1">
      <mxGeometry x="0.5" relative="-1" as="geometry">
        <mxPoint as="offset" />
      </mxGeometry>
    </mxCell><object id="link_id:link:clab-om-om-pe21:eth4:clab-om-client4:eth1" label="" src_label="eth4" trgt_label="eth1" source="clab-om-om-pe21" target="clab-om-client4">
      <mxCell style="endArrow=none;html=1;startSize=6;fontSize=14;strokeColor=#98A2AE;fontColor=#FFFFFF;textOpacity=100;labelBackgroundColor=#4D5766;jumpStyle=gap;strokeWidth=3;entryY=0.5;exitY=0.5;entryX=0;exitX=1;" edge="1" parent="1" source="clab-om-om-pe21" target="clab-om-client4">
          <mxGeometry relative="1" as="geometry" />
      </mxCell>
    </object><mxCell id="link_id:link:clab-om-om-pe22:eth1:clab-om-om-spine1:eth4-src" value="eth1" style="edgeLabel;html=1;align=center;verticalAlign=middle;resizable=0;points=[];fontColor=#FFFFFF;labelBackgroundColor=#4D5766;" vertex="1" connectable="0" parent="link_id:link:clab-om-om-pe22:eth1:clab-om-om-spine1:eth4">
      <mxGeometry x="-0.5" relative="1" as="geometry">
        <mxPoint as="offset" />
      </mxGeometry>
    </mxCell><mxCell id="link_id:link:clab-om-om-pe22:eth1:clab-om-om-spine1:eth4-trgt" value="eth4" style="edgeLabel;html=1;align=center;verticalAlign=middle;resizable=0;points=[];fontColor=#FFFFFF;labelBackgroundColor=#4D5766;" vertex="1" connectable="0" parent="link_id:link:clab-om-om-pe22:eth1:clab-om-om-spine1:eth4">
      <mxGeometry x="0.5" relative="-1" as="geometry">
        <mxPoint as="offset" />
      </mxGeometry>
    </mxCell><object id="link_id:link:clab-om-om-pe22:eth1:clab-om-om-spine1:eth4" label="" src_label="eth1" trgt_label="eth4" source="clab-om-om-pe22" target="clab-om-om-spine1">
      <mxCell style="endArrow=none;html=1;startSize=6;fontSize=14;strokeColor=#98A2AE;fontColor=#FFFFFF;textOpacity=100;labelBackgroundColor=#4D5766;jumpStyle=gap;strokeWidth=3;entryY=0.5;exitY=0.5;entryX=0;exitX=1;" edge="1" parent="1" source="clab-om-om-pe22" target="clab-om-om-spine1">
          <mxGeometry relative="1" as="geometry" />
      </mxCell>
    </object><mxCell id="link_id:link:clab-om-om-pe22:eth2:clab-om-om-spine2:eth4-src" value="eth2" style="edgeLabel;html=1;align=center;verticalAlign=middle;resizable=0;points=[];fontColor=#FFFFFF;labelBackgroundColor=#4D5766;" vertex="1" connectable="0" parent="link_id:link:clab-om-om-pe22:eth2:clab-om-om-spine2:eth4">
      <mxGeometry x="-0.5" relative="1" as="geometry">
        <mxPoint as="offset" />
      </mxGeometry>
    </mxCell><mxCell id="link_id:link:clab-om-om-pe22:eth2:clab-om-om-spine2:eth4-trgt" value="eth4" style="edgeLabel;html=1;align=center;verticalAlign=middle;resizable=0;points=[];fontColor=#FFFFFF;labelBackgroundColor=#4D5766;" vertex="1" connectable="0" parent="link_id:link:clab-om-om-pe22:eth2:clab-om-om-spine2:eth4">
      <mxGeometry x="0.5" relative="-1" as="geometry">
        <mxPoint as="offset" />
      </mxGeometry>
    </mxCell><object id="link_id:link:clab-om-om-pe22:eth2:clab-om-om-spine2:eth4" label="" src_label="eth2" trgt_label="eth4" source="clab-om-om-pe22" target="clab-om-om-spine2">
      <mxCell style="endArrow=none;html=1;startSize=6;fontSize=14;strokeColor=#98A2AE;fontColor=#FFFFFF;textOpacity=100;labelBackgroundColor=#4D5766;jumpStyle=gap;strokeWidth=3;entryY=0.5;exitY=0.5;entryX=0;exitX=1;" edge="1" parent="1" source="clab-om-om-pe22" target="clab-om-om-spine2">
          <mxGeometry relative="1" as="geometry" />
      </mxCell>
    </object><mxCell id="link_id:link:clab-om-om-pe22:eth3:clab-om-client3:eth2-src" value="eth3" style="edgeLabel;html=1;align=center;verticalAlign=middle;resizable=0;points=[];fontColor=#FFFFFF;labelBackgroundColor=#4D5766;" vertex="1" connectable="0" parent="link_id:link:clab-om-om-pe22:eth3:clab-om-client3:eth2">
      <mxGeometry x="-0.5" relative="1" as="geometry">
        <mxPoint as="offset" />
      </mxGeometry>
    </mxCell><mxCell id="link_id:link:clab-om-om-pe22:eth3:clab-om-client3:eth2-trgt" value="eth2" style="edgeLabel;html=1;align=center;verticalAlign=middle;resizable=0;points=[];fontColor=#FFFFFF;labelBackgroundColor=#4D5766;" vertex="1" connectable="0" parent="link_id:link:clab-om-om-pe22:eth3:clab-om-client3:eth2">
      <mxGeometry x="0.5" relative="-1" as="geometry">
        <mxPoint as="offset" />
      </mxGeometry>
    </mxCell><object id="link_id:link:clab-om-om-pe22:eth3:clab-om-client3:eth2" label="" src_label="eth3" trgt_label="eth2" source="clab-om-om-pe22" target="clab-om-client3">
      <mxCell style="endArrow=none;html=1;startSize=6;fontSize=14;strokeColor=#98A2AE;fontColor=#FFFFFF;textOpacity=100;labelBackgroundColor=#4D5766;jumpStyle=gap;strokeWidth=3;entryY=0.5;exitY=0.5;entryX=0;exitX=1;" edge="1" parent="1" source="clab-om-om-pe22" target="clab-om-client3">
          <mxGeometry relative="1" as="geometry" />
      </mxCell>
    </object><mxCell id="link_id:link:clab-om-om-pe22:eth4:clab-om-client4:eth2-src" value="eth4" style="edgeLabel;html=1;align=center;verticalAlign=middle;resizable=0;points=[];fontColor=#FFFFFF;labelBackgroundColor=#4D5766;" vertex="1" connectable="0" parent="link_id:link:clab-om-om-pe22:eth4:clab-om-client4:eth2">
      <mxGeometry x="-0.5" relative="1" as="geometry">
        <mxPoint as="offset" />
      </mxGeometry>
    </mxCell><mxCell id="link_id:link:clab-om-om-pe22:eth4:clab-om-client4:eth2-trgt" value="eth2" style="edgeLabel;html=1;align=center;verticalAlign=middle;resizable=0;points=[];fontColor=#FFFFFF;labelBackgroundColor=#4D5766;" vertex="1" connectable="0" parent="link_id:link:clab-om-om-pe22:eth4:clab-om-client4:eth2">
      <mxGeometry x="0.5" relative="-1" as="geometry">
        <mxPoint as="offset" />
      </mxGeometry>
    </mxCell><object id="link_id:link:clab-om-om-pe22:eth4:clab-om-client4:eth2" label="" src_label="eth4" trgt_label="eth2" source="clab-om-om-pe22" target="clab-om-client4">
      <mxCell style="endArrow=none;html=1;startSize=6;fontSize=14;strokeColor=#98A2AE;fontColor=#FFFFFF;textOpacity=100;labelBackgroundColor=#4D5766;jumpStyle=gap;strokeWidth=3;entryY=0.5;exitY=0.5;entryX=0;exitX=1;" edge="1" parent="1" source="clab-om-om-pe22" target="clab-om-client4">
          <mxGeometry relative="1" as="geometry" />
      </mxCell>
    </object></root>
          </mxGraphModel>
        </diagram></mxfile>